<?xml version="1.0" encoding="UTF-8"?><svg id="Layer_1" xmlns="http://www.w3.org/2000/svg" viewBox="0 0 507.05 507.05"><defs><style>.cls-1{fill:#6c8994;}.cls-1,.cls-2{stroke-width:0px;}.cls-2{fill:#efbf81;}</style></defs><path class="cls-2" d="M301.64,330.18s3.17-45.07,20.4-46.39c17.23-1.33,47.9-17.63,77.63-11.46,29.73,6.16,53.8,30.03,53.8,30.03l4.81,27.82h-156.63Z"/><path class="cls-1" d="M261.39,360.91v-9.37h-45.79v46.08h-10.6c-.16-2.11-.47-4.26-.48-6.42-.05-13.49.02-26.99-.05-40.48-.06-10.67-3.72-14.37-14.49-14.38-42.98-.05-85.96-.02-128.95-.02-.25,0-.5,0-.75,0-10.09.22-13.56,3.55-13.64,13.53-.12,13.99-.05,27.99-.11,41.98,0,1.93-.29,3.86-.46,5.95h-10.3c-.13-2.33-.34-4.27-.34-6.21-.04-13.74.07-27.49-.08-41.23-.1-8.81,2.4-16.29,9.99-21.36,2.18-1.45,2.79-3.31,2.81-5.69.02-2.75.04-5.5.25-8.24,1.11-14.5,7.84-25.51,20.44-32.91,9.21-5.41,19.28-8.29,29.71-9.77,12.85-1.83,25.82-2.85,38.66-4.72,14.81-2.15,29.55-4.82,44.3-7.34,1.93-.33,3.79-1.14,6.35-1.93.1-2.71.28-5.38.29-8.05.02-21.74,0-43.48,0-65.22,0-2.75-.11-5.51.18-8.24.74-7.13,5.5-11.87,12.57-12.68,1.48-.17,2.99-.17,4.49-.17,39.98,0,79.97-.01,119.95,0,1.71,0,3.43.2,5.6.33v10.5c-3.05,0-5.72,0-8.39,0-37.73,0-75.47,0-113.2,0-10.32,0-10.36.06-10.36,10.45,0,20.24.01,40.48.02,60.72,0,2.46,0,4.92,0,8.73,4.56-1.93,8.18-3.36,11.71-4.98,20.98-9.64,40.12-22.35,59-35.47,4.87-3.39,10.01-5.42,16.04-5.27,16.7.41,27.84,16.19,22.49,31.98-2.47,7.3-7.32,13.01-12.42,18.53-18.4,19.87-40.51,34.7-64.31,47.23-1.99,1.05-4,2.05-5.99,3.09-.21.11-.35.36-.52.54.04.21.02.44.12.61.11.2.29.39.48.52.2.14.45.29.68.3,1.99.08,3.99.17,5.99.17,21.44.01,42.89,0,64.4,0,1.06-2.63,1.88-4.69,2.71-6.74,8.75-21.71,29.59-36.09,53.07-36.32,17.99-.17,35.99-.18,53.98-.02,32.16.29,57.03,24.52,58.06,56.56.14,4.34.87,8.2,2.95,12.12,1.57,2.96,2.38,6.66,2.43,10.05.23,15.74.09,31.48.06,47.23,0,.72-.26,1.43-.51,2.71h-10.25c-.13-2.58-.4-5.47-.41-8.35-.04-12.99.04-25.99-.03-38.98-.05-10.34-3.6-13.93-14.01-13.94-42.98-.06-85.96-.04-128.95,0-2.48,0-5.08,0-7.43.66-4.89,1.39-7.43,5.68-7.48,12.55-.1,13.49-.02,26.99-.02,40.48,0,2.43,0,4.86,0,7.73h-10.46c-.21-8.14-.43-16.46-.67-25.68-3.22,0-5.89,0-8.56,0-12.99,0-25.99.02-38.98-.02-1.99,0-4-.07-5.96-.39-2.77-.45-4.54-2.1-4.55-5.06-.01-3.27,1.84-5.11,4.97-5.51,1.97-.25,3.99-.19,5.98-.19,5.97-.02,11.95,0,18.76,0ZM190.69,324.74c0-3.09.03-5.3,0-7.51-.07-3.99,1.55-6.35,5.64-7.58,17.1-5.14,32.77-13.43,47.88-22.76,17.07-10.54,33.05-22.5,46.1-37.9,3.01-3.56,5.6-7.69,7.42-11.98,2.38-5.6.25-10.85-4.75-14.35-5.46-3.83-10.14-3.65-16.63.58-11.71,7.64-23.29,15.49-35.16,22.86-25.34,15.73-52.68,26.23-82.38,30.04-18.07,2.32-36.19,4.25-54.28,6.45-9.71,1.18-19.18,3.42-27.96,7.87-13.45,6.82-19.9,20.37-16.29,34.28h130.41ZM453.26,325.24c.08-1.44.28-2.42.16-3.35-2.85-23.33-22.07-41.4-45.53-41.99-18.73-.47-37.51-.67-56.22.08-19.46.77-33.31,11.02-41.54,28.55-2.4,5.1-4.1,10.6-3.42,16.72h146.55ZM200.19,323.51c5.82,6.02,10.33,10.68,15.79,16.31,1.33,0,4.05,0,6.76,0,13.96,0,27.92-.07,41.87.03,6.4.05,7.82,1.57,8.11,7.95.19,4.15.26,8.31.39,12.62h16.94c0-4.38-.34-8.35.1-12.23.44-3.89.94-8.06,2.72-11.42,2.27-4.3,2.48-8.37,1.82-13.28h-94.49Z"/><path class="cls-2" d="M464.49,325.53c-1.02-32.03-25.89-56.27-58.06-56.56-17.99-.16-35.99-.15-53.98.02-23.49.23-44.32,14.6-53.07,36.32-.83,2.05-1.65,4.1-2.71,6.74l-1.99,11.47,12.03,1.73,157.78.28ZM453.26,325.24c.08-1.44.28-2.42.16-3.35-2.85-23.33-22.07-41.4-45.53-41.99-18.73-.47-37.51-.67-56.22.08-19.46.77-33.31,11.02-41.54,28.55-2.4,5.1-4.1,10.6-3.42,16.72h146.55Z"/><path class="cls-1" d="M328.77,209.28c.41-28.22,23.42-50.92,51.34-50.66,28.83.27,51.45,23.52,51.06,52.49-.38,27.9-23.78,50.63-51.77,50.29-28.46-.34-51.04-23.58-50.63-52.12ZM379.41,250.08c22.48.22,40.74-17.62,40.9-39.93.15-21.82-17.94-40.12-39.84-40.31-22.46-.19-40.72,17.72-40.81,40.02-.08,22.08,17.63,40.01,39.75,40.22Z"/><path class="cls-1" d="M128.59,259.12c-28.65.07-51.43-22.53-51.57-51.16-.14-28.65,22.42-51.32,51.01-51.77,26.26-.42,52.12,20.04,52.03,51.6-.09,31.94-26.28,51.92-51.47,51.34ZM168.9,208.08c.15-22.51-17.66-40.74-40.01-40.95-22.19-.21-40.75,17.97-41.02,40.17-.27,22.08,18.07,40.73,40.23,40.92,22.41.19,40.65-17.75,40.8-40.14Z"/><circle class="cls-1" cx="129.17" cy="207.57" r="52.36"/><circle class="cls-2" cx="379.69" cy="210.23" r="52.36"/><path class="cls-1" d="M52.96,330.18h142.4l4.83-15.11,52.48-25.76,55.58-48.28-13.24-27.01-24.01,5.89-58.98,36.04-70.76,16.15-64.23,11.21s-29.37,28.32-24.06,46.87Z"/></svg>