<?xml version="1.0" encoding="UTF-8"?><svg id="Layer_1" xmlns="http://www.w3.org/2000/svg" viewBox="0 0 507.05 507.05"><defs><style>.cls-1{fill:none;}.cls-1,.cls-2,.cls-3{stroke-width:0px;}.cls-2{fill:#6c8994;}.cls-3{fill:#efbf81;}</style></defs><path class="cls-1" d="M253.22,199.05c26.8.33,50.11-22.29,50.35-48.88.26-28.09-21.86-50.9-49.54-51.1-27.61-.2-50.02,21.89-50.26,49.54-.25,27.44,21.97,50.09,49.46,50.44Z"/><path class="cls-3" d="M226.8,313.6c5.54,11.7,14.51,18.21,27.82,17.87,13.09-.33,20.98-7.64,26.32-18.99,18.13-38.54,36.34-77.04,54.78-115.43,9.09-18.92,14.35-38.31,11.62-59.58-6.36-49.57-49.32-85.5-99.42-82.75-49.33,2.7-88.74,44.47-88.85,94.18-.61.16-1.21.32-1.82.47,3.32,12.7,4.95,26.16,10.27,37.96,19.09,42.4,39.4,84.24,59.29,126.27ZM254.02,99.08c27.69.2,49.8,23.01,49.54,51.1-.24,26.59-23.55,49.21-50.35,48.88-27.49-.34-49.7-23-49.46-50.44.25-27.65,22.66-49.74,50.26-49.54Z"/><path class="cls-2" d="M455.97,220.29c0-3.17,0-6.41-.56-9.51-1.5-8.24-6.29-13.9-14.6-15.54-24.25-4.8-48.55-9.43-72.9-13.68-2.08-.36-5.82,1.95-6.91,4.01-3.53,6.68-6.73,13.66-9.03,20.85-2.26,7.06-4.46,14.48-4.62,21.79-.57,24.96-.43,49.95-.1,74.92.09,6.95-2.26,8.67-8.65,7.03-5.45-1.4-11.04-3.09-16.57-3.08-7.27.01-15.74-1.31-20.61,6.13-6.09,9.3-11.41,19.09-17.05,28.65l-45.12,9.23c-8.74-7.51-16.63-14.56-24.88-21.15l-51.2-102.81c.67.13,1.33.25,2.03.39-5.45-11.72-9.6-21.54-14.62-30.9-1.59-2.97-5.18-6.14-8.36-6.8-22.29-4.63-44.68-8.83-67.11-12.74-14.29-2.49-23.45,5.48-23.46,19.83-.03,70.03-.02,140.06.02,210.09,0,11.64,5.54,18.4,16.85,20.57,32.21,6.17,64.44,12.3,96.68,18.31,10.5,1.96,20.74,4.52,31.87,2.19,33.54-7.01,67.24-13.32,100.95-19.49,11.18-2.05,22.12-5,34.06-2.48,33.05,6.96,66.33,12.77,99.5,19.2,7.95,1.54,15.33.22,19.52-6.58,3-4.87,4.65-11.36,4.67-17.14.32-67.09.22-134.18.2-201.27ZM98.92,410.75c-.03,1.37-3.26,2.7-5.07,3.94-.28.2-.94-.13-1.41-.23-21.28-4.75-17.72.43-18.01-21.67-.16-12.41-.03-24.83-.03-38.92,8.02,1.51,14.52,2.42,20.8,4.12,1.68.45,3.82,3.3,3.85,5.09.28,15.89.25,31.79-.13,47.67ZM91.13,328.3c-19.45-4.74-16.34.38-16.67-19.93-.18-11-.03-22.01-.03-33.02,0-13.94.17-27.89-.09-41.83-.11-5.82,1.98-7.24,7.46-5.97,20.73,4.79,17.07-.46,17.37,20.75.35,24.46-.07,48.92.17,73.38.06,6.4-1.92,8.14-8.2,6.61ZM134.87,237.49c6.09,1.35,12.25,2.39,20.55,3.98l21.98,45.78c2.17.45,4.34.92,6.5,1.4,1.62.36,3.93,2.65,4,4.13.25,5.46.25,10.94.23,16.8l16.47,34.31c-1.72-1.37-4.81-1.63-7.2-1.44-7.03.54-14.2,2.98-20.98,2.11-14.3-1.83-28.36-5.46-42.59-7.98-4.86-.86-6.44-3.06-6.42-7.86.12-28.4.13-56.81-.13-85.21-.05-6.04,2.37-7.19,7.6-6.03ZM337.37,387.8c0,6.78,0,13.55,0,21.27-4.31-.55-7.37-1.2-10.44-1.3-9.68-.31-19.63-1.92-29.02-.32-33.78,5.74-67.36,12.67-101.04,18.98-7.67,1.44-15.6,3.7-23.16,2.96-13.35-1.31-26.49-4.74-39.76-7.05-5.1-.89-6.76-3.49-6.67-8.55.26-14.2.06-28.4.11-42.6,0-1.87.41-3.74.76-6.67,17.59,3.26,34.58,8.81,51.6,8.88,16.78.06,33.59-5.42,49.71-8.35l55.77-11.26c4.73-.77,9.4-1.83,14.1-2.64,4.07-.75,8.14-1.49,12.19-2.3,2.62-.52,4.33-.09,5.21,1.34,2.02.23,4.05.58,6.12,1.15,16.04,4.4,14.41-.33,14.51,18.1.03,6.12,0,12.24,0,18.36ZM365.45,281.15c.02-14.44.15-28.87-.05-43.31-.08-5.38,1.22-7.63,7.2-6.31,11.23,2.48,22.56,4.53,33.91,6.36,4.86.78,6.62,3.08,6.61,7.82-.1,29.12-.16,58.23.02,87.35.04,5.98-2.49,7.08-7.68,6-11.26-2.35-22.54-4.64-33.87-6.58-4.92-.85-6.29-3.33-6.22-8.01.22-14.43.08-28.87.08-43.31ZM413.1,396.32h-.08c0,7.1-.12,14.19.04,21.29.1,4.63-1.93,6.15-6.33,5.29-12-2.35-24.08-4.36-35.98-7.16-2.12-.5-4.93-4.06-5.01-6.3-.5-14.18-.26-28.38-.41-42.57-.05-4.83,1.79-6.64,6.68-5.62,11.97,2.5,24.06,4.54,35.94,7.41,2.1.51,4.69,4.04,4.91,6.38.65,7.04.23,14.17.23,21.27Z"/><path class="cls-2" d="M151.73,308.14c-.14-3.28-.24-6.58-.25-9.87-1.58-.25-3.16-.5-4.74-.72-1.43-.2-4.58,2.52-4.7,4.05-.52,6.8-.37,13.67-.09,20.5.07,1.63,1.35,4.34,2.51,4.6,10.84,2.45,21.78,4.48,33.83,6.85,0-5.67.06-10.86.05-15.86-8.34-1.62-16.25-3.18-24.1-4.95-1.16-.26-2.45-2.98-2.51-4.6Z"/><path class="cls-2" d="M280.91,384.47c0-6.19-.08-12-.02-17.69-1.9.39-3.79.78-5.68,1.21-1.59.36-3.82,2.72-3.89,4.24-.38,8.44-.18,16.91-.18,26.21,5.52-.87,10.04-1.5,14.52-2.31,18.5-3.34,21.9-3.97,22.18-16.5-3.1.85-7.13,1.58-12.4,2.54-4.48.81-9,1.44-14.52,2.31Z"/><path class="cls-2" d="M174.12,302.62c-7.49-1.68-15.04-3.16-22.63-4.35.01,3.29.11,6.59.25,9.87.07,1.63,1.35,4.34,2.51,4.6,7.85,1.78,15.76,3.33,24.1,4.95-.01-3.72-.07-7.34-.23-10.95-.07-1.48-2.38-3.77-4-4.13Z"/><path class="cls-2" d="M187.89,292.78c-.07-1.48-2.38-3.77-4-4.13-2.16-.48-4.33-.95-6.5-1.4l10.72,22.33c.03-5.86.02-11.34-.23-16.8Z"/><path class="cls-2" d="M316.74,350.19c-.88-1.43-2.59-1.86-5.21-1.34-4.06.8-8.13,1.54-12.19,2.3,5.73-.99,11.49-1.62,17.41-.96Z"/><path class="cls-2" d="M307.68,369.17c-.01-.49-.04-.98-.02-1.46.14-4.17-1.75-5.72-5.91-4.9-6.95,1.38-13.93,2.57-20.87,3.98-.05,5.69.02,11.5.02,17.69,5.52-.87,10.04-1.5,14.52-2.31,5.27-.95,9.3-1.69,12.4-2.54.06-2.82-.03-6.25-.15-10.45Z"/><path class="cls-3" d="M322.86,351.34c-2.06-.57-4.1-.92-6.12-1.15.51.84.74,2.02.69,3.56-.02.49,0,.98.02,1.46.49,17.53.59,21.61-9.63,24.42-.28,12.53-3.68,13.16-22.18,16.5-4.48.81-9,1.44-14.52,2.31,0-9.3-.2-17.77.18-26.21.07-1.52,2.29-3.88,3.89-4.24,1.89-.43,3.78-.82,5.68-1.21.03-2.86.08-5.7.2-8.52.07-1.52,2.29-3.88,3.89-4.24,4.76-1.08,9.56-1.99,14.36-2.89-4.7.82-9.38,1.87-14.1,2.64l-55.77,11.26c-16.12,2.93-32.92,8.42-49.71,8.35-17.01-.07-34-5.62-51.6-8.88-.35,2.93-.76,4.8-.76,6.67-.05,14.2.15,28.41-.11,42.6-.09,5.06,1.56,7.67,6.67,8.55,13.27,2.3,26.41,5.74,39.76,7.05,7.55.74,15.49-1.53,23.16-2.96,33.68-6.31,67.26-13.23,101.04-18.98,9.39-1.6,19.33.01,29.02.32,3.07.1,6.13.74,10.44,1.3,0-7.72,0-14.49,0-21.27,0-6.12.03-12.24,0-18.36-.1-18.43,1.53-13.7-14.51-18.1Z"/><path class="cls-3" d="M281.09,358.26c-.13,2.82-.18,5.66-.2,8.52,6.94-1.41,13.92-2.6,20.87-3.98,4.15-.82,6.04.73,5.91,4.9-.02.49,0,.98.02,1.46.12,4.2.21,7.63.15,10.45,10.22-2.8,10.11-6.89,9.63-24.42-.01-.49-.04-.98-.02-1.46.05-1.54-.18-2.72-.69-3.56-5.92-.66-11.68-.04-17.41.96-4.8.89-9.6,1.81-14.36,2.89-1.59.36-3.82,2.72-3.89,4.24Z"/><path class="cls-3" d="M99.17,248.31c-.3-21.21,3.36-15.97-17.37-20.75-5.48-1.27-7.57.16-7.46,5.97.27,13.94.09,27.88.09,41.83,0,11.01-.15,22.02.03,33.02.33,20.31-2.78,15.19,16.67,19.93,6.28,1.53,8.27-.22,8.2-6.61-.24-24.46.18-48.93-.17-73.38Z"/><path class="cls-3" d="M127.4,328.73c-.02,4.79,1.55,7,6.42,7.86,14.23,2.52,28.29,6.15,42.59,7.98,6.79.87,13.95-1.57,20.98-2.11,2.39-.18,5.48.07,7.2,1.44l-16.47-34.31c-.02,3.2-.04,6.52-.04,10.01-3.32-.65-6.55-1.28-9.73-1.9.02,5-.05,10.2-.05,15.86-12.05-2.37-22.99-4.4-33.83-6.85-1.16-.26-2.45-2.98-2.51-4.6-.29-6.83-.43-13.7.09-20.5.12-1.54,3.27-4.25,4.7-4.05,1.58.22,3.16.47,4.74.72-.01-3.55.07-7.1.34-10.63.12-1.54,3.27-4.25,4.7-4.05,6.99.97,13.95,2.23,20.87,3.66l-21.98-45.78c-8.29-1.59-14.46-2.63-20.55-3.98-5.23-1.16-7.66,0-7.6,6.03.26,28.4.25,56.81.13,85.21Z"/><path class="cls-3" d="M151.82,287.64c-.27,3.53-.35,7.08-.34,10.63,7.59,1.19,15.14,2.67,22.63,4.35,1.62.36,3.93,2.65,4,4.13.16,3.61.22,7.22.23,10.95,3.17.62,6.41,1.25,9.73,1.9,0-3.49.02-6.81.04-10.01l-10.72-22.33c-6.92-1.44-13.88-2.7-20.87-3.66-1.43-.2-4.58,2.52-4.7,4.05Z"/></svg>