<?xml version="1.0" encoding="UTF-8"?><svg id="Layer_1" xmlns="http://www.w3.org/2000/svg" viewBox="0 0 507.05 507.05"><defs><style>.cls-1{fill:#6c8994;}.cls-1,.cls-2{stroke-width:0px;}.cls-2{fill:#efbf81;}</style></defs><path class="cls-1" d="M144.69,224.21c6.22-6.23,10.12-14.9,10.12-24.4s-3.89-18.19-10.12-24.39c-6.23-6.24-14.89-10.11-24.41-10.11s-18.18,3.87-24.39,10.11c-6.25,6.2-10.12,14.87-10.12,24.39s3.87,18.17,10.12,24.4c6.21,6.23,14.88,10.12,24.39,10.12s18.18-3.89,24.41-10.12ZM95.92,199.8c0-6.73,2.73-12.8,7.15-17.23,4.42-4.4,10.47-7.11,17.21-7.11s12.81,2.71,17.24,7.11c4.41,4.43,7.12,10.5,7.12,17.23s-2.71,12.8-7.12,17.23c-4.43,4.41-10.48,7.13-17.24,7.13s-12.79-2.71-17.21-7.13c-4.41-4.43-7.15-10.48-7.15-17.23Z"/><path class="cls-1" d="M394.48,224.21c6.22-6.23,10.1-14.9,10.1-24.4s-3.88-18.19-10.1-24.39c-6.25-6.24-14.9-10.11-24.4-10.11s-18.19,3.87-24.41,10.11c-6.22,6.2-10.11,14.87-10.1,24.39-.01,9.5,3.88,18.17,10.1,24.4,6.22,6.23,14.89,10.12,24.41,10.12s18.16-3.89,24.4-10.12ZM345.7,199.8c0-6.73,2.72-12.8,7.15-17.23,4.41-4.4,10.48-7.11,17.23-7.11s12.78,2.71,17.22,7.11c4.41,4.43,7.13,10.5,7.13,17.23s-2.73,12.8-7.13,17.23c-4.44,4.41-10.49,7.13-17.22,7.13s-12.81-2.71-17.23-7.13c-4.42-4.43-7.15-10.48-7.15-17.23Z"/><path class="cls-2" d="M260.12,251.74c-9.39,0-17.94,3.82-24.08,10.02-6.17,6.12-9.98,14.67-9.98,24.08s3.81,17.95,9.98,24.07c6.14,6.16,14.69,10,24.08,9.97,9.39.03,17.95-3.81,24.11-9.97,6.15-6.12,9.98-14.68,9.98-24.07s-3.83-17.96-9.98-24.08c-6.16-6.2-14.71-10.02-24.11-10.02ZM277.04,302.75c-4.35,4.32-10.29,7-16.92,7s-12.56-2.68-16.91-7c-4.34-4.35-7.02-10.29-7.02-16.91s2.68-12.59,7.02-16.92c4.35-4.35,10.29-7,16.91-7s12.57,2.65,16.92,7c4.35,4.33,6.99,10.29,6.99,16.92s-2.64,12.56-6.99,16.91Z"/><path class="cls-1" d="M57.3,340.16c-.49.38-.99.8-1.47,1.24-5.75,5.11-10.43,11.21-13.7,18.08-3.26,6.84-5.08,14.42-5.08,22.35v40.15c-2.24.53-3.91,2.54-3.91,4.93,0,2.83,2.29,5.09,5.08,5.09l431.68-.53c2.8-.02,5.07-2.31,5.07-5.12s-2.27-5.06-5.08-5.06l-17.28.03v-37.04c0-7.93-1.81-15.5-5.08-22.35-3.64-7.66-9.08-14.4-15.81-19.86,1.03-.93,1.69-2.25,1.69-3.74v-40.48c0-7.95-1.83-15.51-5.09-22.35-4.9-10.28-12.99-18.9-23.07-24.97-10.09-6.07-22.21-9.58-35.18-9.58-17.32,0-33.08,6.23-44.57,16.46-5.76,5.14-10.45,11.22-13.71,18.09-3.25,6.84-5.07,14.4-5.05,22.35v40.48c0,2.79,2.26,5.07,5.07,5.07s5.09-2.28,5.09-5.07v-40.48c0-6.39,1.43-12.44,4.08-17.98,3.95-8.35,10.61-15.54,19.12-20.65,8.52-5.12,18.82-8.13,29.98-8.13,4.29,0,8.46.47,12.46,1.32-6.82,1.35-12.95,4.72-17.65,9.44-6.25,6.23-10.12,14.9-10.11,24.4,0,9.52,3.86,18.18,10.11,24.4,5.97,5.97,14.19,9.76,23.27,10.05v6.73c-13.47.22-25.95,4.19-36.16,10.87v-25.08c0-2.79-2.28-5.09-5.08-5.09s-5.08,2.3-5.08,5.09v25.1c0,2.31,1.56,4.25,3.66,4.87-.26.2-.54.45-.79.67-5.74,5.09-10.43,11.22-13.7,18.06-3.26,6.86-5.07,14.42-5.07,22.35v37.2h-3.34v-39.08c0-3.6-.51-7.26-1.33-10.85-.8-3.58-1.93-7.05-3.24-10.2-2.54-6.1-6.4-11.47-10.94-16.07-4.56-4.61-9.82-8.45-15.3-11.38-6.08-3.31-12.67-5.41-19.42-6.38-3.9-.57-7.65-.7-11.23-.77-3.57-.09-6.97-.16-10.17-.51-3.47-.37-6.71-1.13-9.7-2.31-2.96-1.22-5.66-2.81-8.11-5.01-3.03-2.71-5.56-5.97-7.96-9.62-2.4-3.63-4.7-7.62-7.3-11.67-5.7-8.68-11.28-17.6-17.1-26.41-5.28-7.96-10.51-16.04-15.77-24.07-2.02-3.1-4.73-5.52-7.79-7.14-3.05-1.61-6.45-2.46-9.89-2.46-3.94,0-7.97,1.11-11.5,3.44-2.62,1.7-4.73,3.9-6.3,6.39-1.21-.57-2.44-1.1-3.69-1.59-7.84-3.11-16.49-4.83-25.57-4.83-17.3,0-33.06,6.23-44.56,16.46-5.76,5.14-10.43,11.22-13.7,18.09-3.26,6.84-5.07,14.4-5.07,22.35v31.12M83.18,301c-4.42-4.41-7.14-10.48-7.14-17.23s2.71-12.8,7.14-17.21c4.42-4.42,10.47-7.11,17.22-7.11s12.8,2.7,17.22,7.11c4.41,4.41,7.13,10.46,7.13,17.21s-2.73,12.81-7.13,17.23c-4.42,4.42-10.49,7.14-17.22,7.14s-12.8-2.73-17.22-7.14ZM67.11,297.85c0-1.43.08-2.84.21-4.21,1.67,5.57,4.69,10.56,8.68,14.53,4.35,4.37,9.87,7.56,16.05,9.1v8.16c-9.04,1.06-17.5,3.85-24.94,8v-35.58ZM128.62,421.72v-24.52c0-2.83-2.26-5.08-5.07-5.08s-5.08,2.25-5.08,5.08v24.53l-36.16.03v-24.56c0-2.83-2.27-5.08-5.07-5.08s-5.08,2.25-5.08,5.08v24.6l-24.97.03v-40.01c0-6.39,1.46-12.43,4.09-17.98,3.96-8.35,10.64-15.53,19.15-20.62,8.49-5.12,18.82-8.16,29.96-8.16,14.85,0,28.22,5.38,37.82,13.89,4.79,4.29,8.63,9.31,11.27,14.88,2.64,5.55,4.09,11.59,4.09,17.98v39.86l-24.95.03ZM163.72,421.67v-39.85c0-7.93-1.81-15.51-5.07-22.35-3-6.33-7.25-12.04-12.4-16.92,1.36-.9,2.28-2.47,2.28-4.22v-25.1c0-2.79-2.28-5.09-5.08-5.09s-5.08,2.3-5.08,5.09v23.06c-.91-.61-1.84-1.22-2.78-1.8-9.61-5.76-21.07-9.21-33.37-9.54v-6.71c8.78-.45,16.75-4.24,22.57-10.07,6.24-6.23,10.11-14.87,10.11-24.4s-3.86-18.16-10.11-24.39c-3.37-3.37-7.45-6.04-11.99-7.8,2.45-.3,4.94-.48,7.48-.48,9.5,0,18.37,2.18,26.05,5.99-.04.53-.07,1.04-.07,1.59,0,3.93,1.11,7.97,3.42,11.5l23.8,36.49v31.66c0,2.79,2.26,5.07,5.09,5.07s5.07-2.28,5.07-5.07v-16.09l12.72,19.52,1.31,7.59v72.29l-33.93.03ZM288.01,421.52v-23.96c0-2.79-2.26-5.06-5.07-5.06s-5.08,2.27-5.08,5.06v23.99l-70.06.08v-72.7c0-.29-.02-.56-.06-.85l-1.57-9.07c-.11-.67-.39-1.33-.74-1.91l-47.24-72.48c-1.2-1.85-1.77-3.9-1.78-5.94,0-1.79.45-3.58,1.29-5.17.84-1.59,2.06-2.97,3.68-4.01,1.86-1.22,3.9-1.76,5.96-1.76,1.79,0,3.56.42,5.15,1.25,1.59.85,2.97,2.07,4.03,3.69,5.25,8.04,10.47,16.12,15.81,24.18,5.72,8.67,11.29,17.53,17.04,26.35,2.42,3.67,4.71,7.69,7.36,11.72,2.66,4,5.7,8.01,9.65,11.55,3.37,3.04,7.14,5.3,11.11,6.87,3.98,1.59,8.14,2.54,12.36,3.02,3.83.41,7.53.45,11.05.54,3.51.1,6.84.19,9.99.66,5.68.82,11.09,2.55,16.06,5.25,4.68,2.52,9.14,5.8,12.93,9.6,3.77,3.82,6.84,8.17,8.79,12.88,1.07,2.55,2.02,5.52,2.71,8.51.68,2.99,1.06,6,1.06,8.61v39.08l-24.44.03ZM398.3,319.56c5.91-1.59,11.19-4.7,15.37-8.89,4.6-4.59,7.92-10.51,9.34-17.13.14,1.41.23,2.84.23,4.32v38.44c-7.43-4.26-15.89-7.14-24.95-8.3v-8.43ZM372.06,303.49c-4.42-4.43-7.13-10.5-7.13-17.23s2.71-12.8,7.13-17.23c4.4-4.41,10.47-7.11,17.21-7.11s12.81,2.7,17.22,7.11c4.42,4.43,7.13,10.48,7.13,17.23s-2.7,12.8-7.13,17.23c-4.41,4.4-10.48,7.11-17.22,7.11s-12.81-2.71-17.21-7.11ZM417.5,421.37v-21.71c0-2.81-2.28-5.09-5.08-5.09s-5.07,2.28-5.07,5.09v21.71l-36.15.04v-21.75c0-2.81-2.27-5.09-5.08-5.09s-5.08,2.28-5.08,5.09v21.77l-24.95.03v-37.18c0-6.38,1.43-12.41,4.09-17.97,3.94-8.32,10.64-15.51,19.13-20.62,8.52-5.12,18.82-8.14,29.96-8.14,14.87,0,28.24,5.38,37.83,13.89,4.78,4.27,8.64,9.33,11.27,14.87,2.65,5.55,4.09,11.59,4.09,17.97v37.05l-24.96.03Z"/><path class="cls-2" d="M266.96,85.52v-15.67c0-2.79-2.26-5.06-5.07-5.06s-5.08,2.27-5.08,5.06v15.67c0,2.79,2.29,5.06,5.08,5.06s5.07-2.26,5.07-5.06Z"/><path class="cls-2" d="M304.02,103.84l11.1-11.08c1.99-1.99,1.99-5.2,0-7.18-1.98-1.99-5.2-1.99-7.18,0l-11.08,11.06c-1.97,1.99-1.97,5.2,0,7.19,1.97,1.99,5.18,1.99,7.16,0Z"/><path class="cls-2" d="M214.32,86.75c-2.01-1.97-5.21-1.97-7.19,0-1.97,1.99-1.97,5.22,0,7.19l11.08,11.06c1.99,2,5.2,2,7.18,0,1.97-1.97,1.97-5.19,0-7.16l-11.07-11.1Z"/><circle class="cls-2" cx="261" cy="287" r="28"/><circle class="cls-1" cx="120" cy="200" r="28"/><circle class="cls-1" cx="370" cy="200" r="28"/><circle class="cls-1" cx="389" cy="286" r="28"/><path class="cls-1" d="M325.66,424.62l14.94-68.98s32-25,47-24,47.86,18.99,50.93,24.5,6.47,39.53,6.47,39.53v32.71l-119.34-3.75Z"/><path class="cls-1" d="M37.06,421.98l14.94-68.98s32-25,47-24,47.86,18.99,50.93,24.5,6.47,39.53,6.47,39.53v32.71l-119.34-3.75Z"/><path class="cls-2" d="M323,418l-9.39-55.35-21.23-23.99s-11.54-7.86-34.46-4.76c-22.92,3.1-34.06-17.02-34.06-17.02l-47.86-72.88s-12.24-6.02-17.62,2.49c-5.38,8.51-19.48,2.1,3.07,34.3,22.55,32.2,38.55,64.2,38.55,64.2l-2,77,125-1v-3Z"/><circle class="cls-1" cx="100.5" cy="278.5" r="30.5"/><path class="cls-2" d="M287.86,109.62c-6.83-6.84-16.33-11.08-26.76-11.08s-19.9,4.24-26.74,11.08c-6.84,6.84-11.08,16.31-11.06,26.75-.02,7.4,2.16,14.34,5.84,20.15h.01c.31.54.68,1.06,1.05,1.62.05.03.08.1.11.13t.03.03c.99,1.54,2.2,3.07,3.52,4.92,2.06,2.86,4.41,6.31,6.33,10.43,1.72,3.69,3.09,7.93,3.64,12.72v15.2c0,1.33.55,2.65,1.49,3.58.41.4.89.72,1.41.98-.02.22-.03.45-.03.72,0,3.96,1.61,7.58,4.22,10.18,2.6,2.58,6.21,4.21,10.19,4.21s7.59-1.62,10.17-4.21c2.61-2.6,4.22-6.21,4.22-10.18,0-.24-.02-.43-.03-.64.58-.27,1.11-.59,1.56-1.06.95-.93,1.49-2.25,1.49-3.58v-15.55c0-.32-.03-.64-.09-.95.34-2.2.83-4.38,1.49-6.5.79-2.51,1.75-4.95,2.89-7.29.99-2.01,2.12-4,3.39-5.94.95-1.51,2.02-2.97,3.15-4.38.76-.96,1.84-2.1,3-3.55l.1-.08.03-.06c1.22-1.59,2.15-3.23,2.89-4.87.42-.95.79-1.86,1.13-2.74,1.02-2.68,1.73-5.49,2.1-8.35v-.03c.22-1.62.31-3.28.31-4.9,0-10.43-4.22-19.91-11.06-26.75ZM256,145.54c0-2.51,2.03-4.54,4.54-4.54h.86c2.54,0,4.6,2.06,4.6,4.6v31.4h-10v-31.46ZM264.12,209.84c-.79.77-1.81,1.25-2.99,1.27-1.2-.01-2.22-.5-3.02-1.27-.78-.77-1.23-1.8-1.23-2.99,0-.1.01-.14.01-.22h8.46c0,.08.02.13.02.22,0,1.19-.47,2.21-1.25,2.99ZM268.38,196.48h-14.37v-5.39h14.37v5.39Z"/><path class="cls-2" d="M323,421.37v-39.08c0-3.6-.51-7.26-1.33-10.85-.8-3.58-1.93-7.05-3.24-10.2-2.54-6.1-6.4-11.47-10.94-16.07-4.56-4.61-9.82-8.45-15.31-11.38-6.08-3.31-12.67-5.41-19.43-6.38-3.9-.57-7.65-.7-11.24-.77-3.57-.09-6.98-.16-10.17-.51-3.47-.37-6.71-1.13-9.7-2.31-2.96-1.22-5.66-2.81-8.11-5.01-3.03-2.71-5.56-5.97-7.97-9.62-2.4-3.63-4.7-7.62-7.31-11.67-5.7-8.68-11.28-17.6-17.1-26.41-5.28-7.96-10.51-16.04-15.77-24.07-2.02-3.1-4.73-5.52-7.8-7.14-3.05-1.61-6.46-2.46-9.89-2.46-3.94,0-7.97,1.11-11.5,3.44-2.62,1.7-4.73,3.9-6.3,6.39,0,0-3.51,4.69-3.21,9.71-.04.53-.07,1.04-.07,1.59,0,3.93,1.11,7.97,3.42,11.5l23.8,36.49,10.16,15.58,12.72,19.52,1.31,7.59v72.29l10.15-.02v-72.7c0-.29-.02-.56-.06-.85l-1.57-9.07c-.11-.67-.39-1.33-.74-1.91l-47.25-72.48c-1.2-1.85-1.78-3.9-1.78-5.94,0-1.79.45-3.58,1.29-5.17.84-1.59,2.06-2.97,3.69-4.01,1.86-1.22,3.9-1.76,5.96-1.76,1.79,0,3.57.42,5.15,1.25,1.59.85,2.97,2.07,4.03,3.69,5.25,8.04,10.48,16.12,15.82,24.18,5.72,8.67,11.29,17.53,17.05,26.35,2.42,3.67,4.71,7.69,7.36,11.72,2.66,4,5.7,8.01,9.65,11.55,3.37,3.04,7.15,5.3,11.11,6.87,3.98,1.59,8.14,2.54,12.37,3.02,3.83.41,7.53.45,11.06.54,3.52.1,6.84.19,9.99.66,5.68.82,11.09,2.55,16.06,5.25,4.68,2.52,9.15,5.8,12.93,9.6,3.78,3.82,6.84,8.17,8.79,12.88,1.07,2.55,2.02,5.52,2.71,8.51.68,2.99,1.06,6,1.06,8.61v39.08h10.16Z"/></svg>