<?xml version="1.0" encoding="UTF-8"?><svg id="Layer_1" xmlns="http://www.w3.org/2000/svg" viewBox="0 0 507.05 507.05"><defs><style>.cls-1{fill:none;}.cls-1,.cls-2,.cls-3{stroke-width:0px;}.cls-2{fill:#6c8994;}.cls-3{fill:#efbf81;}</style></defs><path class="cls-1" d="M343.88,280.29c15.79-3.31,33.24-1.96,51.92,4.03,5.26-17.5,7.83-35.77,7.83-55.7v-112.93c-.28-.11-.56-.21-.84-.31-1.91-.69-3.42-1.24-4.91-1.68-36.83-11.04-75.82-17.62-119.2-20.09-31.05-1.77-63.76-1.13-97.22,1.92-31.12,2.83-61.09,8.99-89.07,18.29-1.09.36-2.24.94-3.35,1.51-.05.32-.08.57-.08.75.02,11.62,0,23.25-.02,34.88-.05,27.65-.1,56.24.43,84.33.59,31.59,7.93,60.75,21.81,86.68,26.18,48.91,69.08,83.44,131.16,105.57,2.07.74,4.47.94,5.84.49,12.18-3.96,24.48-9.47,37.48-16.78-18.29-38.11-14.66-72.32,10.81-101.74,13.52-15.61,29.48-25.44,47.44-29.21Z"/><path class="cls-2" d="M451.93,363.16c-1.24-26.95-13.34-49.69-35.98-67.64.05-.19.1-.38.14-.57.49-1.97.96-3.83,1.5-5.59,5.35-17.57,8.17-36.6,8.4-56.57.35-31.45.3-63.41.24-94.32-.01-8.67-.03-17.34-.04-26.01,0-10.94-1.84-13.48-12.26-16.96-35.38-11.82-72.91-19.27-114.74-22.8-43.53-3.67-86.79-3.15-128.58,1.54-32.38,3.64-61.7,10.14-89.62,19.87-12.82,4.47-14.14,6.3-14.12,19.6.03,17.84.11,35.97.18,53.51l.03,5.68c.03,7.22-.02,14.57-.07,21.68-.11,16.16-.22,32.86.61,49.3,2.3,45.39,17.23,85.91,44.38,120.43,30.95,39.35,72.5,67.4,127.04,85.73,5.67,1.91,11.23,1.61,17-.9,10.88-4.74,21.77-9.45,32.95-14.27l10.7-4.62c18.96,17.15,40.82,26.13,63.59,26.12,1.29,0,2.58-.03,3.87-.09,23.6-1.05,46.72-11.87,61.85-28.93,16.34-18.43,24.06-40.02,22.95-64.17ZM285.64,411.24c-13,7.32-25.29,12.82-37.48,16.78-1.37.44-3.77.24-5.84-.49-62.08-22.13-104.98-56.66-131.16-105.57-13.88-25.93-21.22-55.09-21.81-86.68-.53-28.09-.48-56.68-.43-84.33.02-11.63.04-23.25.02-34.88,0-.18.03-.44.08-.75,1.12-.57,2.26-1.15,3.35-1.51,27.98-9.3,57.95-15.46,89.07-18.29,33.46-3.05,66.16-3.69,97.22-1.92,43.38,2.48,82.37,9.05,119.2,20.09,1.49.45,3,.99,4.91,1.68.28.1.56.2.85.31v112.93c-.01,19.93-2.58,38.2-7.84,55.7-18.67-5.99-36.12-7.34-51.92-4.03-17.96,3.77-33.92,13.6-47.44,29.21-25.47,29.42-29.1,63.63-10.81,101.74ZM409.7,415.1c-12.57,12.09-29.16,18.72-46.84,18.72-.35,0-.7,0-1.04,0-17.49-.26-33.92-7.43-46.27-20.2-12.45-12.88-19.13-29.73-18.79-47.46.67-36.12,30.4-65.08,66.51-65.08.38,0,.76,0,1.14,0,36.71.62,66.13,30.75,65.57,67.17-.27,17.89-7.48,34.53-20.28,46.85Z"/><path class="cls-3" d="M364.42,301.08c-.38,0-.76,0-1.14,0-36.11,0-65.84,28.96-66.51,65.08-.33,17.73,6.34,34.58,18.79,47.46,12.35,12.77,28.78,19.94,46.27,20.2.35,0,.7,0,1.04,0,17.68,0,34.27-6.62,46.84-18.72,12.8-12.32,20.01-28.96,20.28-46.85.56-36.42-28.86-66.55-65.57-67.17ZM411.72,343.72c-.69,1.43-1.6,2.62-2.4,3.68-.23.31-.47.61-.69.92-3.41,4.7-6.82,9.41-10.26,14.09-2.68,3.66-5.36,7.32-8.04,10.98-7.67,10.47-15.6,21.3-23.48,31.89-3.38,4.55-6.26,7.48-10.13,8.01-.42.06-.84.09-1.25.09-3.41,0-6.63-1.94-10.81-5.17-7.26-5.62-14.58-11.39-21.66-16.96l-5.09-4.01c-1.56-1.23-3.17-2.5-4.68-3.98-4.3-4.24-4.91-9.72-1.62-14.67,1.61-2.43,3.97-4.03,6.65-4.51,3.03-.55,6.22.31,9.21,2.48,4.22,3.06,8.34,6.32,12.33,9.48,2.29,1.81,4.57,3.62,6.88,5.39,1.98,1.52,4.05,3.01,6.25,4.59l.15.11,7.78-10.55c7.96-10.79,15.75-21.37,23.57-31.93.67-.9,1.33-1.81,1.99-2.71,2.38-3.27,4.85-6.65,7.58-9.81,3.77-4.36,9.28-5.04,14.03-1.74,4.97,3.46,6.35,8.82,3.69,14.35Z"/><path class="cls-3" d="M140.98,153.33c-.12,1.3-.22,2.36-.22,3.33.02,7.63,0,15.26-.03,22.89-.05,17.9-.11,36.4.39,54.56,1.06,38.46,15.3,71.75,42.31,98.97,14.18,14.29,30.68,25.87,50.3,35.29v-136.61h-46.28s-3.46-24.77,0-24.3,46.28-3.57,46.28-3.57v-59.78c-35.5.51-65.16,3.45-92.75,9.21Z"/><path class="cls-1" d="M243.11,121.63c-2.29-.11-4.34-.12-6.24,0-5.79.33-11.68.62-17.38.9-14.02.68-28.51,1.39-42.75,2.79-14.11,1.39-28.23,4.06-41.89,6.64l-4.32.81c-9.34,1.75-12.31,5.23-12.23,14.31.08,8.26.11,16.53.14,24.8.1,24.32.2,49.47,1.43,74.2,1.5,30.18,12.43,58.85,32.47,85.21,20.12,26.46,46.9,46.72,81.89,61.91,5.08,2.21,9.12,3.6,12.46,3.6,1.87,0,3.53-.44,5.02-1.42,4.09-2.68,4.91-8.23,4.92-16.32,0-24.68,0-49.35,0-74.03v-45.24c0-39.76,0-79.51,0-119.27v-.89c0-1.69,0-3.43-.12-5.21-.67-9.33-3.8-12.31-13.39-12.79Z"/><path class="cls-2" d="M402.78,115.38c-1.91-.69-3.42-1.24-4.91-1.68-36.83-11.04-75.82-17.62-119.2-20.09-31.05-1.77-63.76-1.13-97.22,1.92-31.12,2.83-61.09,8.99-89.07,18.29-1.09.36-2.24.94-3.35,1.51-.05.32-.08.57-.08.75.02,11.62,0,23.25-.02,34.88-.05,27.65-.1,56.24.43,84.33.59,31.59,7.93,60.75,21.81,86.68,26.18,48.91,69.08,83.44,131.16,105.57,2.07.74,4.47.94,5.84.49,12.18-3.96,24.48-9.47,37.48-16.78-12.59-26.23-14.79-50.61-6.64-72.86v-106.38h46.28s3.46-24.77,0-24.3-46.28-3.57-46.28-3.57v-59.78c35.5.51,65.16,3.45,92.75,9.21.12,1.3.22,2.36.22,3.33-.02,7.63,0,15.26.03,22.89.05,17.9.11,36.4-.39,54.56-.43,15.61-3.03,30.37-7.78,44.22,10.16.27,20.85,2.18,31.97,5.75,5.26-17.5,7.83-35.77,7.83-55.7v-112.93c-.28-.11-.56-.21-.84-.31ZM256.62,140.52c0,39.76,0,79.51,0,119.27v45.24c0,24.68,0,49.35,0,74.03,0,8.09-.83,13.64-4.92,16.32-1.49.98-3.15,1.42-5.02,1.42-3.34,0-7.38-1.39-12.46-3.6-34.99-15.2-61.77-35.45-81.89-61.91-20.04-26.36-30.96-55.03-32.47-85.21-1.23-24.73-1.33-49.88-1.43-74.2-.03-8.27-.07-16.53-.14-24.8-.08-9.08,2.89-12.56,12.23-14.31l4.32-.81c13.66-2.58,27.79-5.25,41.89-6.64,14.23-1.41,28.73-2.11,42.75-2.79,5.7-.28,11.6-.56,17.38-.9,1.9-.11,3.95-.1,6.24,0,9.59.47,12.72,3.46,13.39,12.79.13,1.78.12,3.52.12,5.21v.89Z"/><path class="cls-2" d="M325.28,207.7c3.46-.47,0,24.3,0,24.3h-46.28v-27.87s42.82,4.05,46.28,3.57Z"/></svg>