<?xml version="1.0" encoding="UTF-8"?><svg id="Layer_1" xmlns="http://www.w3.org/2000/svg" viewBox="0 0 507.05 507.05"><defs><style>.cls-1{fill:#6c8994;}.cls-1,.cls-2{stroke-width:0px;}.cls-2{fill:#efbf81;}</style></defs><path class="cls-1" d="M440.67,198c9.33,18-14.67,94-14.67,94,0,0,10-87-68.05-90l-11.58-52h75.3s13.48,37.35,19,48Z"/><path class="cls-2" d="M67,198c-16,41,16,92,16,92,0,0-10-88,66.72-88l11.58-52h-75.3s-14.64,36.82-19,48Z"/><path class="cls-2" d="M350.37,150h-96.35l6.04,93.01s39.95-46.01,98.21-41l-7.9-52.02Z"/><path class="cls-2" d="M223.35,53.42s-32.07,25.35-44.21,46.97c-12.14,21.62-17.84,49.62-17.84,49.62h92.72l.11-104.74-30.78,8.16Z"/><path class="cls-2" d="M254.19,352.64c24.97-.16,44.64-19.99,44.37-44.74-.27-24.54-20.82-44.66-45.17-44.22-24.11.43-43.89,20.46-43.96,44.51-.07,24.67,20.01,44.62,44.76,44.46Z"/><path class="cls-2" d="M343.36,396.41c-.56-16.07-8.61-27.56-23.84-33.46-5.69-2.2-11.73-3.56-17.3-6.01-8.48-3.73-15.02-3.02-21.44,4.63-7.82,9.32-16.9,17.58-26.19,27.06-3.21-2.94-5.24-4.68-7.14-6.56-7.97-7.88-15.99-15.71-23.8-23.74-3.72-3.82-7.51-5.18-12.74-3.14-6.95,2.71-14.2,4.62-21.18,7.25-16.15,6.08-25.02,18.63-25.21,35.76-.18,15.96-.05,31.93-.05,47.89,0,1.02-.05,2.04.03,3.06.39,5.15,3.08,8.67,6.65,8.74,0,0,110.88,24.94,165.37-.47,2.19.05,4.76-2.94,6.54-5.1.88-1.06.45-3.28.45-4.97.02-16.98.45-33.98-.14-50.94ZM208.47,449.61c-.08,4.93-3.44,8.35-7.11,8.29-3.89-.06-6.34-3.01-6.52-8.66-.22-7.1-.05-14.22-.05-21.33h-.03c0-6.43-.13-12.87.04-19.3.16-6.31,2.6-9.35,6.89-9.16,3.86.17,6.75,3.32,6.82,8.53.19,13.88.19,27.76-.03,41.64ZM313.3,449.25c-.19,5.48-2.89,8.61-6.69,8.57-3.69-.04-7.02-3.41-7.11-8.39-.25-13.84-.25-27.7-.05-41.54.08-5.28,2.9-8.15,7-8.31,4.15-.17,6.63,2.5,6.83,8.14.24,6.75.06,13.51.06,20.26h.02c0,7.09.18,14.19-.06,21.27Z"/><path class="cls-1" d="M347.99,177.17c1.03,5.32,1.51,10.75,2.45,16.09,1.19,6.72,3.4,9.06,7.83,8.76,4.53-.31,6.18-2.89,5.81-9.88-.22-4.05-.77-8.1-1.43-12.11-1.14-6.98-2.49-13.92-3.85-21.49,2.34-.66,3.29-1.16,4.24-1.17,16.3-.06,32.6,0,48.9-.13,4.25-.04,7.17,1.28,8.55,5.52.84,2.57,2.06,5.02,3,7.56,14.16,38.25,15.08,76.88,3.28,115.87-2.46,8.14-1.67,11.8,2.56,13.23,4.96,1.67,8.07-.93,10.65-9.21,10.12-32.46,11.7-65.42,4.39-98.54-23.42-106.06-127.25-171.98-233.31-148.43-100.31,22.28-168.98,121.38-147.92,228.36,1.5,7.63,3.8,15.14,6.26,22.53,1.67,4.99,5.41,6.77,9.39,5.27,4.62-1.74,4.33-5.63,3.59-9.39-.65-3.32-1.8-6.54-2.69-9.81-10.61-39-8.11-77.21,6.68-114.77,2.25-5.72,5.19-8.57,11.86-8.33,14.59.51,29.21.1,43.81.2,2.21.01,4.42.72,7.21,1.21-.73,4.28-1.37,7.9-1.95,11.53-1.18,7.37-2.64,14.7-3.38,22.11-.62,6.2.9,9.03,4.5,9.7.35.2.77.26,1.29.15.48.02.93.01,1.36-.02,43.93-3.98,87,37.71,99.84,44.14.66.59,1.34.97,1.93.97,2.49,0,5.9-1.93,7.21-4.07,1.43-2.34,1.19-5.86,1.2-8.87.09-22.08.03-44.15.08-66.23,0-3.23.4-6.46.63-9.99h81.7c1.53,6.74,3.1,12.96,4.32,19.25ZM246.03,53.73c2.68,9.39.88,19.17,1.19,28.76.33,10.16.07,20.35.07,30.52v29.83h-77.08c6.54-36.82,42.24-87.53,75.82-89.1ZM99.66,142.92c7.74-26.07,57.31-71.19,97.77-80.34-6.64,8.86-13.06,16.43-18.33,24.72-5.44,8.55-10.18,17.6-14.45,26.8-4.25,9.17-7.53,18.79-11.48,28.82h-53.51ZM263.13,142.88c-2.39-7.83-2.56-80.19-.17-89.47,15.52,2.11,27.56,10.6,38.17,21.27,14.8,14.9,24.96,32.86,32.62,52.28,1.93,4.9,3.45,9.97,5.48,15.91h-76.1Z"/><path class="cls-1" d="M149.73,307.68c24.35-.31,43.42-19.87,43.43-44.53,0-24.97-19.68-44.62-44.58-44.49-24.82.13-44.1,19.96-43.9,45.14.2,24.93,19.99,44.2,45.06,43.88Z"/><path class="cls-1" d="M314.94,262.73c-.92,26.04,21.46,45.07,44.06,44.98,22.02-.08,44.08-16,44.69-43.52.61-27.16-20.1-44.87-43.73-45.47-24.85-.62-44.91,19.17-45.03,44Z"/><path class="cls-1" d="M182.28,310.7c-1.99,1.21-3.6,3.07-5.28,4.73-7.47,7.41-14.87,14.9-22.38,22.27-1.83,1.79-3.98,3.25-6.08,4.94-1.81-1.61-3.13-2.66-4.31-3.84-8.16-8.16-16.45-16.19-24.37-24.58-4.55-4.81-9.29-6.17-15.5-3.66-5.34,2.16-10.91,3.75-16.38,5.6-19.62,6.63-28.65,18.82-28.88,39.4-.17,14.94-.1,29.88-.1,44.82,0,1.69-.01,3.42.31,5.07.1.5.22.99.35,1.47.1.53.28,1.04.54,1.51,1.04,2.43,2.83,4.2,5.84,4.27,20.53,7.96,82.96,0,82.96,0v-20.57c.98-8.41,3.43-17.84,9-25.13,13-17,49.72-22,49.72-22-1.72-14-16.42-33.15-16.42-33.15-1.93-3.39-5.85-3.08-9.02-1.16ZM103.01,404.32c-.21,5.54-2.92,8.54-6.82,8.48-3.72-.06-6.82-3.38-6.89-8.53-.21-13.86-.2-27.73.02-41.58.09-5.42,2.76-8.08,7-8.17,4.23-.09,6.43,2.37,6.63,8.22.23,6.75.05,13.52.05,20.28h.08c0,7.1.21,14.21-.07,21.3Z"/><path class="cls-1" d="M448.87,352.15c-.57-15.45-7.81-27.34-22.42-33.49-8.4-3.54-17.33-5.83-25.9-8.99-3.78-1.39-6.59-.39-9.23,2.11-1.13,1.06-2.24,2.14-3.34,3.22-.61.52-1.22,1.09-1.82,1.73-.51.54-1.04,1.08-1.56,1.62-8.1,8.03-16.19,16.08-25.22,25.05-3.79-3.67-6.72-6.44-9.59-9.28-7.22-7.16-14.28-14.49-21.67-21.49-4.26-4.04-8.87-4.12-11.62-.88-.38.45-.68.93-.9,1.44-.33.33-.63.72-.89,1.18,0,0-14.7,19.15-16.42,33.15,0,0,36.72,5,49.72,22,5.57,7.29,8.02,16.73,9,25.13v20.57s62.42,7.97,82.96,0c2.76-.06,4.48-1.56,5.55-3.68,1.74-1.17,2.77-3.12,3.26-5.49.27-1.31.27-2.7.27-4.05,0-16.62.44-33.25-.17-49.85ZM418.82,383.41c0,6.09.05,12.19-.03,18.28-.03,2.01-.08,4.11-.66,6-.97,3.2-3.58,5.72-6.71,4.83-2.42-.69-4.3-3.55-6.17-5.66-.53-.6-.27-1.96-.27-2.97-.02-13.54-.13-27.09.03-40.63.07-5.99,2.06-8.45,6.19-8.77,4.61-.35,7.34,2.52,7.55,8.6.23,6.76.05,13.54.05,20.31h.02Z"/></svg>