<?xml version="1.0" encoding="UTF-8"?><svg id="Layer_1" xmlns="http://www.w3.org/2000/svg" viewBox="0 0 507.05 507.05"><defs><style>.cls-1{fill:none;}.cls-1,.cls-2,.cls-3{stroke-width:0px;}.cls-2{fill:#6c8994;}.cls-3{fill:#efbf81;}</style></defs><path class="cls-3" d="M332.8,303.8l42.21-34.74c-7.1-18.45,5.69-44.51,5.69-44.51l-46.14-30.52s.04,102.38-1.76,109.76Z"/><path class="cls-2" d="M229.77,208.72l51.72,1.96s2.8-13.3-.18-15.02c-2.99-1.72-13.13-15.88-16.5-15.66s-21.16,1.93-21.16,1.93c0,0-15.99,14.12-13.88,26.78Z"/><path class="cls-2" d="M304.36,262.89c-3.78-7.66-9.18-13.52-18.22-14.61-2.67-.32-5.54.41-8.08-.24-2.5-.64-4.28-.08-6.08,1.3-4.65,3.58-9.99,5.28-15.76,5.37-2.81.04-3.67,1.15-3.65,3.72.06,8.16.02,16.33.02,24.49-.03,0-.06,0-.1,0,0,8.16-.01,16.33,0,24.49,0,2,.22,3.91,3.02,3.65,6.96-.64,14.13-.42,20.83-2.09,10.41-2.58,20.6-6.24,29.85-11.9,1.1-.67,2.11-2.41,2.16-3.69.14-3.33-.37-6.67-.46-10.02-.18-7.01-.38-14.04-3.56-20.49Z"/><path class="cls-2" d="M218.83,249.93c-8.7,4.52-13.37,12.05-14.73,21.37-1.07,7.32-1.11,14.81-1.32,22.23-.04,1.26,1.06,3.16,2.17,3.73,5.2,2.67,10.59,4.98,15.92,7.41,2.35,1.07,3.6.39,3.6-2.29,0-8.58,0-17.16,0-25.74.1,0,.2,0,.31,0,0-7.86.14-15.71-.05-23.56-.12-4.8-1.55-5.4-5.88-3.15Z"/><path class="cls-3" d="M252.5,157.02l-82.62,53.66v74.03s27.15,19,22.94,29.55l65.88,39.92,77.67-54.7,3.17-94.99-87.03-47.47ZM310.29,299.11c-7.34,3.45-14.62,7.16-22.25,9.82-6.84,2.39-14.04,4.35-21.22,5.03-7.92.75-16-.11-24.01-.37-8.03-.26-15.72-2.35-23.08-5.35-6.47-2.63-12.71-5.83-18.95-8.97-.99-.5-2.11-2.1-2.05-3.13.57-9.37.79-18.83,2.32-28.07,1.54-9.32,6.73-16.78,15.44-21.19,1.89-.96,4.12-1.36,6.24-1.73,2.96-.51,5.98-.67,8.93-1.21.51-.09,1.22-1.4,1.13-2.05-.43-3.1-1.04-6.18-1.75-9.23-.15-.66-.89-1.36-1.54-1.7-2.13-1.11-4.36-2.03-6.52-3.1-.42-.21-.78-.69-1.01-1.13-2.35-4.32-.18-13.66,3.56-16.78,1.03-.85,1.75-2.63,1.8-4,.32-9.73,4.54-17.47,12.5-22.69,15.31-10.05,35.02-3.6,41.47,12.4,1.41,3.5,1.56,7.5,2.55,11.2.35,1.33,1.44,2.46,2.2,3.67.05.07.2.07.28.13,5.43,4.07,2.84,9.79,2.81,14.85-.02,3.11-2.59,4.42-5.66,4.72-2.62.26-4.17,1.4-4.12,4.61.04,2.71-1.07,5.43-1.8,8.78,1.24.11,2.45.39,3.63.31,15.21-1,27.13,12.2,28.75,23.89,1.29,9.28,1.58,18.7,2.12,28.08.06,1.07-.85,2.78-1.77,3.22Z"/><path class="cls-3" d="M279.5,222.63c0,3.71,1.86,4.91,5.19,3.29.92-.45,1.71-1.16,2.29-1.57-.56-1.01-1.04-1.49-1.07-1.99-.11-1.98.05-3.98-.12-5.96-.18-2.02-1.59-2.85-3.5-2.84-2.01.01-2.72,1.29-2.74,3.09-.03,1.99-.05,3.98-.04,5.97Z"/><path class="cls-2" d="M218.83,249.93c-8.7,4.52-13.37,12.05-14.73,21.37-1.07,7.32-1.11,14.81-1.32,22.23-.04,1.26,1.06,3.16,2.17,3.73,5.2,2.67,10.59,4.98,15.92,7.41,2.35,1.07,3.6.39,3.6-2.29,0-8.58,0-17.16,0-25.74.1,0,.2,0,.31,0,0-7.86.14-15.71-.05-23.56-.12-4.8-1.55-5.4-5.88-3.15Z"/><path class="cls-3" d="M228.91,213.62c-1.9-.63-3.64.72-3.8,2.69-.22,2.87-.26,5.88.44,8.63.27,1.07,2.75,1.59,4.67,2.59.58-1.13,1.38-1.97,1.39-2.83.04-2.58-.02-5.21-.48-7.73-.23-1.26-1.2-3.01-2.23-3.35Z"/><path class="cls-2" d="M304.36,262.89c-3.78-7.66-9.18-13.52-18.22-14.61-2.67-.32-5.54.41-8.08-.24-2.5-.64-4.28-.08-6.08,1.3-4.65,3.58-9.99,5.28-15.76,5.37-2.81.04-3.67,1.15-3.65,3.72.06,8.16.02,16.33.02,24.49-.03,0-.06,0-.1,0,0,8.16-.01,16.33,0,24.49,0,2,.22,3.91,3.02,3.65,6.96-.64,14.13-.42,20.83-2.09,10.41-2.58,20.6-6.24,29.85-11.9,1.1-.67,2.11-2.41,2.16-3.69.14-3.33-.37-6.67-.46-10.02-.18-7.01-.38-14.04-3.56-20.49Z"/><path class="cls-1" d="M218.83,249.93c-8.7,4.52-13.37,12.05-14.73,21.37-1.07,7.32-1.11,14.81-1.32,22.23-.04,1.26,1.06,3.16,2.17,3.73,5.2,2.67,10.59,4.98,15.92,7.41,2.35,1.07,3.6.39,3.6-2.29,0-8.58,0-17.16,0-25.74.1,0,.2,0,.31,0,0-7.86.14-15.71-.05-23.56-.12-4.8-1.55-5.4-5.88-3.15Z"/><path class="cls-1" d="M255.35,206.79v.16c7.32,0,14.63-.03,21.95.02,2.03.01,3.18-.84,2.56-2.82-1.12-3.56-2.15-7.23-3.92-10.48-4.25-7.81-15.86-13.2-23.75-11.39-11.22,2.57-18.54,9.06-20.78,20.71-.68,3.52-.62,3.78,2.93,3.8,7,.03,14.01,0,21.01,0Z"/><path class="cls-1" d="M228.91,213.62c-1.9-.63-3.64.72-3.8,2.69-.22,2.87-.26,5.88.44,8.63.27,1.07,2.75,1.59,4.67,2.59.58-1.13,1.38-1.97,1.39-2.83.04-2.58-.02-5.21-.48-7.73-.23-1.26-1.2-3.01-2.23-3.35Z"/><path class="cls-1" d="M279.5,222.63c0,3.71,1.86,4.91,5.19,3.29.92-.45,1.71-1.16,2.29-1.57-.56-1.01-1.04-1.49-1.07-1.99-.11-1.98.05-3.98-.12-5.96-.18-2.02-1.59-2.85-3.5-2.84-2.01.01-2.72,1.29-2.74,3.09-.03,1.99-.05,3.98-.04,5.97Z"/><path class="cls-1" d="M304.36,262.89c-3.78-7.66-9.18-13.52-18.22-14.61-2.67-.32-5.54.41-8.08-.24-2.5-.64-4.28-.08-6.08,1.3-4.65,3.58-9.99,5.28-15.76,5.37-2.81.04-3.67,1.15-3.65,3.72.06,8.16.02,16.33.02,24.49-.03,0-.06,0-.1,0,0,8.16-.01,16.33,0,24.49,0,2,.22,3.91,3.02,3.65,6.96-.64,14.13-.42,20.83-2.09,10.41-2.58,20.6-6.24,29.85-11.9,1.1-.67,2.11-2.41,2.16-3.69.14-3.33-.37-6.67-.46-10.02-.18-7.01-.38-14.04-3.56-20.49Z"/><path class="cls-3" d="M272.71,210.68c-5.75.09-11.51.03-17.26.03v.04c-5.65,0-11.3.09-16.95-.05-2.15-.05-3.15.65-3.17,2.78-.07,6.47-1.72,13.12,2.32,19.11.26.39.19,1.01.27,1.53,1.18,8.29,8.66,14.05,16.83,12.97.61-.08,1.28-.12,1.86.05,4.22,1.27,7.45-.74,10.68-3.01,5.61-3.94,5.22-11.02,8.59-16.12.05-.08.02-.21.02-.31,0-4.71,0-9.42-.02-14.12,0-2.09-1.03-2.93-3.16-2.89Z"/><path class="cls-3" d="M245.17,252.87c-1.66-.4-3.33-1.41-4.63-2.55-2.44-2.13-5.25-2.28-8.22-2.36-2.82-.07-3.9,1.08-3.87,3.91.11,8.68.04,17.37.04,26.05,0,8.58.06,17.16-.04,25.74-.03,2.37.76,3.79,3.12,4.24,4,.75,8,1.48,11.99,2.29,4.73.96,5.24.58,5.24-4.38.01-15.9-.04-31.81.04-47.71.01-2.79-.7-4.52-3.68-5.23Z"/><path class="cls-2" d="M309.94,267.82c-1.62-11.69-13.54-24.89-28.75-23.89-1.18.08-2.39-.19-3.63-.31.74-3.35,1.84-6.07,1.8-8.78-.04-3.21,1.5-4.35,4.12-4.61,3.07-.3,5.63-1.6,5.66-4.72.04-5.06,2.62-10.78-2.81-14.85-.08-.06-.24-.06-.28-.13-.76-1.21-1.85-2.35-2.2-3.67-.98-3.7-1.13-7.7-2.55-11.2-6.46-16-26.16-22.45-41.47-12.4-7.96,5.22-12.18,12.96-12.5,22.69-.04,1.38-.77,3.15-1.8,4-3.74,3.12-5.91,12.45-3.56,16.78.24.44.59.92,1.01,1.13,2.16,1.07,4.39,1.99,6.52,3.1.65.34,1.39,1.04,1.54,1.7.71,3.05,1.32,6.13,1.75,9.23.09.65-.62,1.95-1.13,2.05-2.95.54-5.97.69-8.93,1.21-2.12.37-4.35.77-6.24,1.73-8.71,4.41-13.9,11.87-15.44,21.19-1.52,9.24-1.74,18.69-2.32,28.07-.06,1.02,1.06,2.63,2.05,3.13,6.24,3.15,12.48,6.35,18.95,8.97,7.36,2.99,15.05,5.08,23.08,5.35,8.01.26,16.09,1.13,24.01.37,7.18-.68,14.37-2.65,21.22-5.03,7.63-2.66,14.91-6.36,22.25-9.82.92-.43,1.83-2.15,1.77-3.22-.54-9.37-.83-18.8-2.12-28.08ZM282.29,213.57c1.91-.01,3.32.82,3.5,2.84.17,1.97.02,3.98.12,5.96.03.5.51.98,1.07,1.99-.58.4-1.37,1.12-2.29,1.57-3.33,1.62-5.18.42-5.19-3.29,0-1.99.01-3.98.04-5.97.03-1.8.73-3.08,2.74-3.09ZM231.62,224.7c-.01.85-.81,1.7-1.39,2.83-1.93-1.01-4.4-1.52-4.67-2.59-.7-2.75-.66-5.76-.44-8.63.15-1.97,1.89-3.32,3.8-2.69,1.03.34,2,2.09,2.23,3.35.46,2.53.51,5.15.48,7.73ZM231.41,202.99c2.23-11.65,9.56-18.13,20.78-20.71,7.89-1.81,19.5,3.58,23.75,11.39,1.77,3.25,2.8,6.92,3.92,10.48.62,1.98-.52,2.83-2.56,2.82-7.32-.05-14.63-.02-21.95-.02v-.16c-7,0-14.01.02-21.01,0-3.55-.01-3.61-.27-2.93-3.8ZM275.87,228.01c-3.37,5.1-2.98,12.18-8.59,16.12-3.24,2.27-6.47,4.28-10.68,3.01-.57-.17-1.25-.13-1.86-.05-8.17,1.08-15.65-4.68-16.83-12.97-.07-.52,0-1.14-.27-1.53-4.04-5.98-2.39-12.64-2.32-19.11.02-2.14,1.02-2.84,3.17-2.78,5.65.14,11.3.05,16.95.05v-.04c5.75,0,11.51.06,17.26-.03,2.13-.03,3.16.8,3.16,2.89.02,4.71.02,9.42.02,14.12,0,.1.03.23-.02.31ZM224.77,276.64c-.1,0-.2,0-.31,0,0,8.58,0,17.16,0,25.74,0,2.68-1.24,3.36-3.6,2.29-5.33-2.43-10.71-4.74-15.92-7.41-1.11-.57-2.21-2.47-2.17-3.73.21-7.42.25-14.91,1.32-22.23,1.36-9.33,6.03-16.85,14.73-21.37,4.33-2.25,5.76-1.65,5.88,3.15.19,7.85.05,15.71.05,23.56ZM248.8,305.81c0,4.96-.51,5.34-5.24,4.38-3.99-.81-7.99-1.53-11.99-2.29-2.36-.45-3.15-1.86-3.12-4.24.1-8.58.04-17.16.04-25.74,0-8.68.06-17.37-.04-26.05-.04-2.83,1.05-3.99,3.87-3.91,2.97.08,5.78.23,8.22,2.36,1.31,1.14,2.97,2.16,4.63,2.55,2.98.71,3.69,2.44,3.68,5.23-.08,15.9-.03,31.81-.04,47.71ZM308.38,293.39c-.05,1.28-1.06,3.02-2.16,3.69-9.25,5.66-19.44,9.31-29.85,11.9-6.7,1.66-13.87,1.45-20.83,2.09-2.8.26-3.02-1.66-3.02-3.65-.02-8.16,0-16.33,0-24.49.03,0,.06,0,.1,0,0-8.16.04-16.33-.02-24.49-.02-2.57.84-3.68,3.65-3.72,5.77-.09,11.1-1.79,15.76-5.37,1.79-1.38,3.58-1.94,6.08-1.3,2.55.65,5.41-.08,8.08.24,9.04,1.09,14.44,6.95,18.22,14.61,3.18,6.44,3.38,13.47,3.56,20.49.09,3.34.6,6.69.46,10.02Z"/><path class="cls-2" d="M450.45,290c-8.19-10.39-18.15-21.04-29.68-31.78,2.55-4.36,4.03-9.45,4.03-14.85,0-5.83-1.71-11.31-4.67-15.89,13.94-16.19,25.02-31.89,32.72-46.57,7.76-14.93,12.17-28.82,12.2-41.37,0-4.13-.48-8.1-1.51-11.85-1.04-3.79-2.62-7.37-4.75-10.62-2.34-3.54-5.29-6.63-8.73-9.23-5.15-3.88-11.33-6.63-18.3-8.42-6.95-1.79-14.71-2.61-23.19-2.63-12.65.02-26.91,1.86-42.42,5.4-12.01,2.75-24.78,6.54-38.1,11.3-1.33-5.42-2.73-10.67-4.19-15.77-7.88-27.1-17.76-49.52-29.43-65.5-5.83-7.99-12.14-14.41-19.02-18.95-6.85-4.47-14.37-7.09-22.19-7.06-6.92,0-13.65,2.02-19.86,5.63-5.45,3.16-10.55,7.54-15.33,12.92-8.38,9.42-15.88,21.9-22.53,36.95-5.24,11.87-9.94,25.35-14.07,40.15-7.6.32-14.52,3.54-19.57,8.6-2.73,2.73-4.9,5.98-6.41,9.63-20.96-4.56-40.2-6.9-57.03-6.9-15.26,0-28.55,1.91-39.47,6.1-5.45,2.11-10.3,4.77-14.43,8.13-4.13,3.33-7.51,7.37-9.9,12.01-2.83,5.45-4.15,11.53-4.15,17.84s1.3,12.91,3.68,19.7c4.17,11.83,11.66,24.36,21.88,37.38,11.73,14.87,27.14,30.35,45.57,45.8-5.17,5.38-10.09,10.71-14.66,16.02-14.24,16.41-25.51,32.37-33.32,47.28-7.79,14.87-12.18,28.78-12.2,41.33,0,4.11.48,8.12,1.51,11.87,1.03,3.77,2.61,7.33,4.76,10.6,2.34,3.55,5.29,6.63,8.72,9.24,5.15,3.86,11.33,6.63,18.29,8.4,6.96,1.79,14.73,2.61,23.19,2.61,12.67,0,26.92-1.86,42.45-5.4,12-2.75,24.75-6.53,38.09-11.26,1.32,5.4,2.71,10.67,4.2,15.75,7.89,27.12,17.77,49.52,29.43,65.52,5.85,7.97,12.14,14.4,19,18.91,6.86,4.54,14.38,7.12,22.18,7.12,6.96,0,13.69-2.04,19.88-5.65,5.45-3.18,10.55-7.56,15.33-12.94,8.37-9.4,15.87-21.9,22.53-36.95,7.87-17.81,14.53-39.22,19.76-63.3,28.87,7.76,55.19,11.82,77.33,11.82,15.25,0,28.55-1.91,39.47-6.08,5.45-2.09,10.31-4.75,14.44-8.13,4.11-3.34,7.49-7.38,9.89-12.05,2.81-5.43,4.14-11.51,4.14-17.8s-1.3-12.91-3.68-19.7c-4.18-11.87-11.65-24.4-21.87-37.36ZM342.21,212.47c9.25,5.92,18.1,11.89,26.5,17.93-1.93,3.94-3.02,8.33-3.02,12.96,0,6.49,2.12,12.5,5.67,17.4-9,8.06-18.6,16.14-28.76,24.15.51-10.72.78-21.63.78-32.73,0-13.52-.41-26.78-1.17-39.71ZM368.68,113.24c14.88-3.44,28.35-5.13,39.9-5.13,10.32,0,19.04,1.38,25.87,3.96,3.4,1.31,6.35,2.9,8.81,4.77,2.45,1.86,4.47,4.01,6.08,6.44,1.48,2.23,2.56,4.7,3.31,7.36.72,2.69,1.12,5.65,1.12,8.89.01,9.81-3.64,22.25-10.92,36.11-7.02,13.43-17.38,28.21-30.54,43.59-4.84-3.4-10.71-5.42-17.06-5.42-7.58,0-14.5,2.88-19.72,7.54-10.76-7.72-22.21-15.38-34.27-22.86-1.12-14.07-2.64-27.66-4.58-40.69-1.73-11.56-3.75-22.63-6.06-33.23,13.41-4.83,26.18-8.64,38.06-11.34ZM413.51,243.36c-.02,5.04-2.04,9.58-5.35,12.91-3.32,3.32-7.87,5.35-12.93,5.35s-9.59-2.02-12.91-5.35c-3.31-3.32-5.35-7.87-5.35-12.91s2.05-9.56,5.35-12.91c3.32-3.31,7.85-5.35,12.91-5.35s9.6,2.04,12.93,5.35c3.31,3.34,5.33,7.83,5.35,12.91ZM189.65,289.14c-3.92-3.94-8.99-6.76-14.63-7.95-.4-9.53-.63-19.2-.63-29.03,0-14.3.48-28.25,1.32-41.82,10.89-8.19,22.31-16.21,34.23-24.04,12.91-8.53,25.82-16.36,38.59-23.58,13.43,5.85,27.09,12.3,40.84,19.4,14.32,7.37,28.03,15.09,41.06,23.01,1.07,15.19,1.65,30.94,1.65,47.05,0,14.28-.47,28.24-1.32,41.85-10.89,8.15-22.31,16.18-34.22,24.01-12.92,8.51-25.83,16.38-38.6,23.56-13.43-5.82-27.11-12.26-40.82-19.34-6.43-3.33-12.73-6.71-18.92-10.12.06-.72.11-1.39.11-2.07,0-8.15-3.33-15.57-8.65-20.92ZM118.39,259.27c13.46-13.24,28.73-26.65,45.49-39.85-.52,10.72-.79,21.63-.79,32.73,0,9.74.23,19.32.62,28.82-3.72.59-7.18,1.95-10.28,3.81-12.56-8.38-24.28-16.95-35.05-25.51ZM155.84,297.15c3.32-3.3,7.85-5.36,12.91-5.36s9.6,2.06,12.91,5.36c3.32,3.29,5.34,7.83,5.34,12.91s-2.02,9.58-5.34,12.91c-3.31,3.3-7.83,5.32-12.91,5.32s-9.59-2.02-12.91-5.32c-3.31-3.33-5.35-7.87-5.35-12.91s2.04-9.62,5.35-12.91ZM323.49,146.99c2.44,14.02,4.39,28.82,5.83,44.26-11.15-6.58-22.75-13.02-34.77-19.2-11.24-5.81-22.46-11.19-33.54-16.16,20.33-10.89,40.16-20.06,58.91-27.33,1.28,5.95,2.49,12.1,3.58,18.43ZM193.47,100.88c7.62-26.28,17.21-47.62,27.69-62.01,5.25-7.19,10.71-12.62,16.11-16.13,5.42-3.54,10.66-5.24,15.96-5.24,4.74,0,9.4,1.34,14.19,4.11,4.19,2.43,8.42,5.99,12.57,10.67,7.31,8.15,14.34,19.7,20.64,34,6.39,14.48,12.06,31.71,16.74,51.15-9.15,3.5-18.54,7.46-28.1,11.78-13.51,6.18-27.37,13.16-41.42,20.95-12.19-5.17-24.21-9.8-35.97-13.91.29-1.61.46-3.22.46-4.86,0-8.19-3.33-15.61-8.66-20.93-3.04-3.04-6.79-5.42-10.95-6.9.24-.88.49-1.79.74-2.69ZM169.86,118.46c3.32-3.31,7.85-5.33,12.91-5.36,5.06.03,9.58,2.05,12.91,5.36,3.31,3.34,5.34,7.85,5.34,12.94s-2.04,9.56-5.34,12.87c-3.33,3.32-7.85,5.37-12.91,5.37s-9.59-2.04-12.91-5.37c-3.32-3.3-5.35-7.84-5.35-12.87s2.03-9.6,5.35-12.94ZM89.89,234.55c-15.46-14.84-27.65-29.34-35.83-42.59-4.09-6.61-7.19-12.91-9.23-18.71-2.06-5.85-3.05-11.23-3.05-15.96s.96-8.9,2.89-12.67c1.64-3.16,3.94-5.96,6.97-8.42,4.56-3.7,10.82-6.65,18.72-8.65,7.9-2,17.36-3.04,28.07-3.04,15.84,0,34.39,2.25,54.81,6.68,0,.07,0,.14,0,.14,0,8.19,3.32,15.62,8.65,20.95,2.3,2.29,4.98,4.19,7.93,5.6-2.22,14.85-3.89,30.45-5.03,46.57-20.53,15.68-39.1,31.75-55.2,47.64-7.01-5.85-13.61-11.73-19.67-17.54ZM137.8,391.11c-14.87,3.4-28.35,5.13-39.92,5.13-10.28,0-19.04-1.39-25.86-4-3.41-1.3-6.34-2.9-8.8-4.76-2.48-1.86-4.49-3.99-6.1-6.43-1.45-2.24-2.55-4.65-3.29-7.37-.73-2.7-1.11-5.67-1.11-8.89-.04-9.83,3.63-22.24,10.91-36.11,9.7-18.52,25.7-39.61,46.72-61.33,2.98,2.38,6.01,4.73,9.11,7.12,8.05,6.11,16.53,12.19,25.41,18.21-3.56,4.86-5.68,10.87-5.68,17.38,0,8.15,3.31,15.55,8.65,20.89,5.33,5.35,12.76,8.64,20.9,8.64h.09c.32,2.32.62,4.66.96,6.95,1.72,11.54,3.74,22.63,6.06,33.23-13.4,4.79-26.19,8.6-38.06,11.34ZM182.99,357.36c-1.13-6.51-2.14-13.14-3.06-19.97,3.66-1.49,6.98-3.7,9.73-6.44,2.21-2.2,4.05-4.81,5.47-7.63,5.52,3.04,11.11,6.04,16.8,8.98,11.27,5.77,22.47,11.19,33.56,16.14-20.33,10.9-40.17,20.07-58.93,27.33-1.27-5.96-2.48-12.12-3.56-18.41ZM312.99,403.46c-7.6,26.3-17.19,47.61-27.69,61.98-5.24,7.22-10.69,12.64-16.09,16.16-5.4,3.56-10.65,5.22-15.98,5.22-4.73,0-9.38-1.32-14.17-4.11-4.18-2.43-8.41-5.97-12.59-10.65-7.27-8.19-14.32-19.72-20.62-34.02-6.39-14.44-12.06-31.69-16.76-51.14,9.16-3.5,18.55-7.44,28.12-11.8,13.5-6.14,27.37-13.14,41.4-20.91,20.8,8.79,41.08,16.09,60.33,21.8.3.07.59.18.87.26-2.05,9.54-4.32,18.66-6.83,27.22ZM325.5,344.88c-1.04,6.93-2.18,13.68-3.45,20.23-16.32-4.84-33.42-10.83-50.99-17.98,10.5-6.15,21.09-12.7,31.67-19.63,9.27-6.13,18.26-12.33,26.93-18.63-1.07,12.39-2.47,24.46-4.17,36ZM461.81,359.7c-1.64,3.18-3.94,5.97-6.97,8.44-4.56,3.7-10.83,6.65-18.71,8.67-7.89,1.97-17.35,3-28.08,3-20.93.03-46.64-3.94-75.06-11.62.55-2.93,1.1-5.9,1.61-8.92,3.24-18.57,5.65-38.52,7.11-59.4,13.57-10.37,26.27-20.88,37.97-31.41,4.52,2.8,9.86,4.47,15.55,4.47,6.79,0,13.07-2.34,18.06-6.21,1.1,1.04,2.21,2.06,3.26,3.06,15.51,14.85,27.66,29.34,35.85,42.58,4.11,6.62,7.21,12.89,9.24,18.73,2.05,5.85,3.05,11.19,3.05,15.96,0,4.75-.95,8.9-2.89,12.64Z"/><path class="cls-3" d="M163.88,219.42c-.52,10.72-.79,21.63-.79,32.73,0,9.74.23,19.32.62,28.82-3.72.59-7.18,1.95-10.28,3.81-12.56-8.38-24.28-16.95-35.05-25.51l-8.83-7.18c-7.01-5.85-13.61-11.73-19.67-17.54-15.46-14.84-27.65-29.34-35.83-42.59-4.09-6.61-7.19-12.91-9.23-18.71-2.06-5.85-3.05-11.23-3.05-15.96s.96-8.9,2.89-12.67c1.64-3.16,3.94-5.96,6.97-8.42,4.56-3.7,10.82-6.65,18.72-8.65,7.9-2,17.36-3.04,28.07-3.04,15.84,0,34.39,2.25,54.81,6.68,0,.07,0,.14,0,.14,0,8.19,3.32,15.62,8.65,20.95,2.3,2.29,4.98,4.19,7.93,5.6-2.22,14.85-3.89,30.45-5.03,46.57l-.88,14.98ZM155.84,297.15c3.32-3.3,7.85-5.36,12.91-5.36s9.6,2.06,12.91,5.36c3.32,3.29,5.34,7.83,5.34,12.91s-2.02,9.58-5.34,12.91c-3.31,3.3-7.83,5.32-12.91,5.32s-9.59-2.02-12.91-5.32c-3.31-3.33-5.35-7.87-5.35-12.91s2.04-9.62,5.35-12.91ZM319.91,128.56c1.28,5.95,2.49,12.1,3.58,18.43,2.44,14.02,4.39,28.82,5.83,44.26-11.15-6.58-22.75-13.02-34.77-19.2-11.24-5.81-22.46-11.19-33.54-16.16l-13.15-5.72c-12.19-5.17-24.21-9.8-35.97-13.91.29-1.61.46-3.22.46-4.86,0-8.19-3.33-15.61-8.66-20.93-3.04-3.04-6.79-5.42-10.95-6.9.24-.88.49-1.79.74-2.69,7.62-26.28,17.21-47.62,27.69-62.01,5.25-7.19,10.71-12.62,16.11-16.13,5.42-3.54,10.66-5.24,15.96-5.24,4.74,0,9.4,1.34,14.19,4.11,4.19,2.43,8.42,5.99,12.57,10.67,7.31,8.15,14.34,19.7,20.64,34,6.39,14.48,12.06,31.71,16.74,51.15l2.54,11.12ZM169.86,118.46c3.32-3.31,7.85-5.33,12.91-5.36,5.06.03,9.58,2.05,12.91,5.36,3.31,3.34,5.34,7.85,5.34,12.94s-2.04,9.56-5.34,12.87c-3.33,3.32-7.85,5.37-12.91,5.37s-9.59-2.04-12.91-5.37c-3.32-3.3-5.35-7.84-5.35-12.87s2.03-9.6,5.35-12.94ZM110.36,267.35c2.98,2.38,6.01,4.73,9.11,7.12,8.05,6.11,16.53,12.19,25.41,18.21-3.56,4.86-5.68,10.87-5.68,17.38,0,8.15,3.57,15.3,8.65,20.89,5.93,6.53,20.95,8.64,20.99,8.64l11.09-2.2c3.66-1.49,6.98-3.7,9.73-6.44,2.21-2.2,4.05-4.81,5.47-7.63,5.52,3.04,11.11,6.04,16.8,8.98,11.27,5.77,22.47,11.19,33.56,16.14l13.13,5.74c20.8,8.79,41.08,16.09,60.33,21.8.3.07.59.18.87.26l10.91,3.07c28.87,7.76,55.19,11.82,77.33,11.82,15.25,0,28.55-1.91,39.47-6.08,5.45-2.09,10.31-4.75,14.44-8.13,4.11-3.34,7.49-7.38,9.89-12.05,2.81-5.43,4.14-11.51,4.14-17.8s-1.3-12.91-3.68-19.7c-4.18-11.87-11.65-24.4-21.87-37.36-8.19-10.39-18.15-21.04-29.68-31.78l-7.47,8.51c1.1,1.04,2.21,2.06,3.26,3.06,15.51,14.85,27.66,29.34,35.85,42.58,4.11,6.62,7.21,12.89,9.24,18.73,2.05,5.85,3.05,11.19,3.05,15.96,0,4.75-.95,8.9-2.89,12.64-1.64,3.18-3.94,5.97-6.97,8.44-4.56,3.7-10.83,6.65-18.71,8.67-7.89,1.97-17.35,3-28.08,3-20.93.03-46.64-3.94-75.06-11.62l-10.94-3.08c-16.32-4.84-33.42-10.83-50.99-17.98l-13.13-5.55c-13.43-5.82-27.11-12.26-40.82-19.34-6.43-3.33-12.73-6.71-18.92-10.12.06-.72.11-1.39.11-2.07,0-8.15-3.33-15.57-8.65-20.92-3.92-3.94-8.99-6.76-14.63-7.95-.4-9.53-.63-19.2-.63-29.03,0-14.3.48-28.25,1.32-41.82l1.08-14.87c1.03-11.95,2.37-23.51,4-34.64.64.05,1.3.11,1.98.11,8.13.02,15.56-3.32,20.9-8.65,1.62-1.63,3.04-3.47,4.26-5.43,9.01,3.15,18.18,6.62,27.49,10.4l13.11,5.47c13.43,5.85,27.09,12.3,40.84,19.4,14.32,7.37,28.03,15.09,41.06,23.01l11.77,7.34c9.25,5.92,18.1,11.89,26.5,17.93l6.81-9.04c-10.76-7.72-22.21-15.38-34.27-22.86-1.12-14.07-2.64-27.66-4.58-40.69-1.73-11.56-3.75-22.63-6.06-33.23l-2.57-11.09c-1.33-5.42-2.73-10.67-4.19-15.77-7.88-27.1-17.76-49.52-29.43-65.5-5.83-7.99-12.14-14.41-19.02-18.95-6.85-4.47-14.37-7.09-22.19-7.06-6.92,0-13.65,2.02-19.86,5.63-5.45,3.16-10.55,7.54-15.33,12.92-8.38,9.42-15.88,21.9-22.53,36.95-5.24,11.87-9.94,25.35-14.07,40.15-7.6.32-14.52,3.54-19.57,8.6-2.73,2.73-4.9,5.98-6.41,9.63-20.96-4.56-40.2-6.9-57.03-6.9-15.26,0-28.55,1.91-39.47,6.1-5.45,2.11-10.3,4.77-14.43,8.13-4.13,3.33-7.51,7.37-9.9,12.01-2.83,5.45-4.15,11.53-4.15,17.84s1.3,12.91,3.68,19.7c4.17,11.83,11.66,24.36,21.88,37.38,11.73,14.87,27.14,30.35,45.57,45.8"/><path class="cls-3" d="M260.38,162.28l-52.44-15.43c-11.28,16.23-36.64,9.76-36.64,9.76l-2.74,65.83s84.7-57.5,91.82-60.16Z"/></svg>