<?xml version="1.0" encoding="UTF-8"?><svg id="Layer_1" xmlns="http://www.w3.org/2000/svg" viewBox="0 0 507.05 507.05"><defs><style>.cls-1{fill:none;}.cls-1,.cls-2,.cls-3{stroke-width:0px;}.cls-2{fill:#6c8994;}.cls-3{fill:#efbf81;}</style></defs><path class="cls-2" d="M153.85,69.91c0,6.25.03,12.49,0,18.74-.09,15.29-.81,16.02-15.62,16.08-2.99.01-5.99-.16-8.95.08-13.65,1.08-23.65,9.35-24.46,23.07-1.17,19.69-.49,39.5-.68,59.25-.04,3.69-.09,7.46-.81,11.05-.76,3.76-3.69,5.48-7.52,5.23-3.95-.25-5.97-2.61-6.49-6.42-.05-.37-.1-.74-.1-1.11.16-24.25-.64-48.55.82-72.72,1.08-17.89,17.35-31.42,36.65-33.53,3.3-.36,6.63-.37,11.01-.6.32-3.43.84-6.61.87-9.8.11-9.7-.01-19.41.06-29.11.03-3.83.59-7.51,4.82-9.24,4.33-1.77,7.1.86,9.77,3.52,12.71,12.62,25.67,25.01,37.94,38.05,5.1,5.42,10.44,7.23,17.66,7.16,33.21-.3,66.43-.2,99.64-.11,17.05.05,30.5,7.02,38.47,22.35,2.65,5.1,3.58,11.27,4.39,17.07.63,4.51-1.83,8.13-6.76,8.68-5.2.58-7.05-3-8.07-7.4-.92-3.97-1.51-8.19-3.32-11.74-5.4-10.57-14.95-13.75-26.16-13.73-30.6.06-61.25-.93-91.79.38-16.7.72-29.35-3.47-39.69-16.66-5.62-7.16-12.88-13.03-19.4-19.48-.75.32-1.51.63-2.26.95Z"/><path class="cls-1" d="M421.5,170.9c-2.54.04-5.08.06-7.62.1h11.24c-1.18-.08-2.39-.12-3.62-.1Z"/><path class="cls-2" d="M467.25,196.54c-.14-9.28-2.75-17.43-7.25-23.94v-1.6h-1.17c-7.18-9.29-18.46-14.84-32.02-14.91-60.81-.29-121.63-.1-182.44-.11-9.32,0-17.67,2.97-24.88,8.67-2.48,1.96-4.58,4.09-6.39,6.35h-.11v.14c-6.44,8.15-8.8,18.12-8.76,29.15.12,35.82.74,71.65-.12,107.44-.66,27.51,20.43,45.96,45.58,45.21,32.43-.98,64.91-.03,97.37-.39,7.74-.09,13.27,2.26,18.53,7.89,10.94,11.72,22.52,22.84,33.89,34.15,2.11,2.1,4.22,4.3,6.69,5.9,4.44,2.89,9.04,1.19,10.47-3.94.78-2.81.71-5.9.73-8.87.08-11.16.03-22.31.03-34.95,3.83,0,6.04.08,8.24-.01,14.7-.58,26.7-6.66,33.97-16.73h.4v-.55c4.46-6.43,7.04-14.43,7.2-23.63.67-38.42.63-76.86.05-115.28ZM421.5,170.9c1.24-.02,2.44.02,3.62.1h-11.24c2.54-.03,5.08-.06,7.62-.1ZM262.64,309.78c-3.53.11-7.06-3.2-7.14-6.71-.08-3.57,3.19-6.75,6.95-6.76,3.35-.01,6.47,3.27,6.51,6.83.04,3.41-2.93,6.53-6.32,6.63ZM315.71,282.48c-5.3.16-10.95-.96-16.41-2.97-7.97-2.93-15.84-2.48-23.58.72-4.55,1.89-9.16,3.52-14.05,4.24-13.5,2.02-23.72-3.12-31.4-14.18-6.28-9.04-7.84-19.48-9.47-29.94-.52-3.34-.98-6.69-1.53-10.02-.88-5.37-.11-6.87,4.84-9.23,5.99-2.85,5.86-2.81,6.99,3.86,1.76,10.42,3.14,20.96,6.73,30.95,5.34,14.88,16.78,18.22,31.5,13.01,2.67-.95,5.23-2.2,7.87-3.23,1.93-.75,2.58-2.07,2.4-4.09-.65-7.12-1.82-14.08-5.8-20.21-1.47-2.27-1.04-3.72,1.28-4.98,2.29-1.25,4.54-2.6,6.68-4.09,1.89-1.32,3.19-.81,4.36.89,2.24,3.26,4,6.79,5.15,10.54,1.69,5.52,3.24,11.1,3.9,16.86.17,1.52.49,2.77,2.18,3.24,9.45,2.61,18.79,5.79,28.77,5.57,2.11-.05,5.1.6,5.92-1.51.77-1.98-2.05-3.26-3.42-4.71-2.99-3.17-6.16-6.16-8.92-9.57-3.44-4.25-8.06-6.48-13.32-7.71-4.79-1.12-5.04-1.96-2.44-6.13,2.79-4.49,6.03-5.87,11.38-4.78,5.16,1.04,9.57,3.44,13.33,7.17,5.33,5.3,10.36,10.91,16.2,15.7,2.14,1.75,4.49,3.08,6.93,4.3,2.27,1.14,2.89,2.87,2.05,5.14-1.61,4.37-4.16,7.86-8.83,9.42-9.33,3.12-18.74,5.85-29.28,5.75ZM459.5,264.45c-1.19,6.58-5.65,11.05-11.74,13.51-6.04,2.44-11.25,0-15.41-4.27-2.38-2.44-4.07-2.53-6.94-1.02-7.58,4-15.79,5.68-24.35,4.99-2.44-.2-3.44.62-4.4,2.71-3.6,7.81-7.96,15.2-15.68,19.61-13.8,7.89-27.93,8.21-42.17.99-1.74-.88-2.04-2.09-1.31-3.76.31-.7.66-1.4.84-2.13.78-3.17,2.27-3.97,5.65-2.94,9.45,2.86,18.69,2.86,27.07-3.52,6.51-4.96,9.81-11.49,10.07-18.47-.14-10.04-2.86-18.08-7.99-25.3-3.82-5.38-3.93-5.46,1.4-9.14,6.85-4.72,5.02-5.23,10.72,1.07,4.21,4.65,7.21,10.13,9.48,15.95,4.13,10.57,8.02,12.78,19.27,10.56,1.81-.36,3.59-.92,5.34-1.53,5.09-1.77,5.19-2.23,5.72-7.65.59-6.05.89-12.28,5.93-16.82,5.48-4.95,12.49-5.61,18.09-.6,8.17,7.3,12.44,16.59,10.41,27.76Z"/><path class="cls-3" d="M302.09,371.15l-5.23.04c-.57-.18-1.18-.3-1.83-.35-1.22-.09-2.27.03-3.2.38l-51.03.37c-30.13.22-54.67-24.14-54.68-54.27,0-15.91.21-33.99.1-52.43-.14-22.11-.19-31.41-.21-35.27.02-.39.02-.77,0-1.13,0-1.24,0-1.51,0-1.51h-.27c-.68-2.29-2.46-3.92-4.86-4.78-2.36-.84-5.15-.63-7.74-.64-29.85-.04-59.71-.13-89.56,0-27.62.12-44.34,17.04-44.55,44.91-.11,14.55-.02,29.11-.02,43.66,0,21.64-.19,43.29.05,64.93.29,25.67,16.09,41.97,41.38,43.28,2.47.13,4.93.65,8.53,1.14,0,10.93-.03,21.3.02,31.67.02,3.34-.17,6.76.47,10.01,1.22,6.21,6.54,8.28,11.77,4.7,2.12-1.46,3.85-3.51,5.69-5.36,11.09-11.07,22.5-21.85,33.13-33.35,6.05-6.55,12.5-9.19,21.49-9.05,31.71.49,63.44.2,95.16.17,3.73,0,7.49.06,11.18-.39,11.95-1.43,22.94-9.52,29.1-20.04,7.97-9.15,5.12-26.69,5.12-26.69ZM84.67,335.67c-10.31,0-18.67-8.36-18.67-18.67s8.36-18.67,18.67-18.67,18.67,8.36,18.67,18.67-8.36,18.67-18.67,18.67ZM143.33,335.67c-10.31,0-18.67-8.36-18.67-18.67s8.36-18.67,18.67-18.67,18.67,8.36,18.67,18.67-8.36,18.67-18.67,18.67Z"/><path class="cls-2" d="M153.67,137.33c-10.31,0-18.67,8.36-18.67,18.67s8.36,18.67,18.67,18.67,18.67-8.36,18.67-18.67-8.36-18.67-18.67-18.67Z"/></svg>