<?xml version="1.0" encoding="UTF-8"?><svg id="Layer_1" xmlns="http://www.w3.org/2000/svg" viewBox="0 0 507.05 507.05"><defs><style>.cls-1{fill:#6c8994;}.cls-1,.cls-2{stroke-width:0px;}.cls-2{fill:#fff;}</style></defs><path class="cls-2" d="M162.59,437.64l.87.36c.67-.73,1.38-1.42,2-2.19,8.72-10.93,17.85-21.57,26.06-32.88,21.07-29.02,39.01-59.91,51.5-93.61,14.39-38.81,26.48-78.38,36.28-118.62.4-1.64,1.1-2.26,2.77-2.74,7.02-2.02,14.14-3.89,20.9-6.61,24.74-9.91,40.17-27.65,44.3-54.4.68-4.43.58-8.98.85-13.48-.29-.05-.58-.09-.87-.14-.68,1.27-1.4,2.53-2.05,3.82-3.86,7.67-8.15,15.02-14.52,20.96-10.1,9.4-22.4,14.25-35.72,16.37-13.62,2.17-27.38,3.5-41.07,5.3-15.29,2.01-29.83,6.4-43.18,14.3-31.6,18.71-45.18,48.73-51.96,83,1.23.96,2.12.76,2.79-.73.57-1.25,1.31-2.43,1.96-3.65,12.27-23,29.33-41.09,53.41-51.89,5.15-2.31,10.51-4.16,16.2-6.39-6.89,86.39-27.8,167.93-70.52,243.21ZM271.58,320.88c.48-.07.74-.06.97-.15,12.53-4.76,24.64-10.36,35.83-17.8,6.72-4.47,12.98-9.48,17.6-16.23,7.52-10.98,5.24-23.71-5.57-30.71-2.08-1.35-4.35-2.51-6.67-3.38-12.18-4.59-24.79-4.88-37.51-3.35-3.54.43-7.02,1.33-10.52,2.02.9.98,1.79,1.31,2.59,1.79,6.07,3.61,12.29,6.99,18.11,10.95,4.59,3.12,8.27,7.32,10.64,12.47,2.69,5.85,2.67,11.55-1.21,16.89-2.17,3-4.37,6.02-6.84,8.77-5.66,6.27-11.5,12.38-17.42,18.72ZM279.24,114.71c-.68-2.52-1.62-7.62-3.44-12.38-2.21-5.79-7.43-8.53-13.47-7.81-4.03.48-7.35,2.42-9.94,5.5-3.9,4.64-6.5,10-7.65,15.91-1.89,9.72-.2,18.59,7.53,25.49,6.18,5.52,12.37,5.21,17.84-1.02,5.75-6.55,8.96-14.23,9.14-25.69Z"/><path class="cls-1" d="M253.5,4C115.7,4,4,115.7,4,253.5s111.7,249.5,249.5,249.5,249.5-111.7,249.5-249.5S391.3,4,253.5,4ZM244.74,115.93c1.15-5.91,3.75-11.27,7.65-15.91,2.59-3.08,5.91-5.02,9.94-5.5,6.03-.72,11.26,2.01,13.47,7.81,1.82,4.77,2.76,9.86,3.44,12.38-.18,11.46-3.38,19.14-9.14,25.69-5.47,6.23-11.66,6.54-17.84,1.02-7.72-6.9-9.41-15.77-7.53-25.49ZM325.98,286.7c-4.62,6.75-10.88,11.76-17.6,16.23-11.19,7.44-23.3,13.05-35.83,17.8-.23.09-.49.08-.97.15,5.92-6.34,11.76-12.45,17.42-18.72,2.48-2.75,4.67-5.77,6.84-8.77,3.87-5.35,3.9-11.05,1.21-16.89-2.37-5.15-6.05-9.36-10.64-12.47-5.83-3.96-12.05-7.34-18.11-10.95-.8-.48-1.7-.8-2.59-1.79,3.51-.69,6.98-1.6,10.52-2.02,12.72-1.53,25.33-1.24,37.51,3.35,2.32.87,4.59,2.03,6.67,3.38,10.81,7,13.09,19.73,5.57,30.71ZM347.27,126.96c-4.12,26.74-19.56,44.48-44.3,54.4-6.77,2.71-13.88,4.59-20.9,6.61-1.67.48-2.37,1.1-2.77,2.74-9.8,40.24-21.89,79.81-36.28,118.62-12.49,33.69-30.43,64.58-51.5,93.61-8.21,11.31-17.34,21.95-26.06,32.88-.61.77-1.33,1.46-2,2.19-.29-.12-.58-.24-.87-.36,42.73-75.28,63.64-156.83,70.52-243.21-5.69,2.23-11.05,4.08-16.2,6.39-24.08,10.81-41.15,28.89-53.41,51.89-.65,1.22-1.39,2.39-1.96,3.65-.68,1.49-1.56,1.69-2.79.73,6.79-34.27,20.37-64.28,51.96-83,13.34-7.9,27.88-12.29,43.18-14.3,13.69-1.8,27.44-3.13,41.07-5.3,13.32-2.12,25.62-6.97,35.72-16.37,6.37-5.93,10.66-13.29,14.52-20.96.65-1.29,1.36-2.55,2.05-3.82.29.05.58.09.87.14-.26,4.5-.16,9.05-.85,13.48Z"/></svg>